#DATAKIT Version 261
mtllib .\ball.mtl
#
#	object Revolve1
#
v 6.563378 9.901495 -1.697782
v 4.820345 10.831209 -1.857197
v 4.820345 10.989280 0.000000
v 6.563378 10.045998 0.000000
v 8.127378 8.701694 -1.492055
v 2.945826 11.632803 0.000000
v 8.127378 8.828687 0.000000
v 9.469687 7.264534 -1.245629
v 11.349807 3.896394 0.000000
v 11.349807 3.840348 0.658494
v 11.836335 1.975135 0.000000
v 9.469687 2.748158 6.839055
v 9.469687 1.552823 7.205122
v 10.553685 2.129521 5.299516
v 10.553685 5.629216 -0.965226
v 10.553685 5.711369 0.000000
v 11.349807 3.840348 -0.658494
v 8.127378 -7.314652 4.943842
v 9.469687 -6.106574 4.127324
v 9.469687 -5.321215 5.099972
v 9.469687 6.434597 3.594581
v 10.553685 4.986105 2.785406
v 10.553685 5.385121 1.902684
v 9.469687 7.370553 0.000000
v 11.836335 1.946725 -0.333799
v 11.349807 3.673822 1.298044
v 11.836335 1.946725 0.333799
v 12.000000 0.000000 -0.000000
v 8.127378 -2.585241 -8.441697
v 8.127378 -1.121401 -8.757178
v 9.469687 -2.158266 -7.047477
v 2.945826 11.465476 -1.965953
v 0.990952 11.959014 0.000000
v 0.990952 11.786994 -2.021083
v -0.990952 11.959014 0.000000
v -0.990952 11.786994 -2.021083
v -2.945826 11.632803 0.000000
v -2.945826 11.465476 -1.965953
v -4.820345 10.989280 0.000000
v -4.820345 10.831209 -1.857197
v -6.563378 10.045998 0.000000
v -6.563378 9.901495 -1.697782
v -8.127378 8.828687 0.000000
v -8.127378 8.701694 -1.492055
v -9.469687 7.370553 0.000000
v -9.469687 7.264534 -1.245629
v -10.553685 5.711369 0.000000
v -10.553685 5.629216 -0.965226
v -11.349807 3.896394 0.000000
v -2.945826 10.968307 -3.875350
v -4.820345 10.361545 -3.660966
v 8.127378 8.324369 -2.941187
v 11.836335 1.862310 -0.657996
v 11.349807 3.673822 -1.298044
v 6.563378 9.472145 -3.346722
v 4.820345 10.361545 -3.660966
v 10.553685 5.385121 -1.902684
v 2.945826 10.968307 -3.875350
v 0.990952 11.275885 -3.984023
v 9.469687 6.949528 -2.455424
v -0.990952 11.275885 -3.984023
v -6.563378 9.472145 -3.346722
v -8.127378 8.324369 -2.941187
v -9.469687 6.949528 -2.455424
v -0.990952 10.440388 -5.832351
v -2.945826 10.155602 -5.673259
v -11.349807 3.840348 -0.658494
v -10.553685 5.385121 -1.902684
v -11.836335 1.975135 0.000000
v -12.000000 0.000000 0.000000
v -11.836335 1.946725 -0.333799
v -11.836335 1.862310 -0.657996
v 8.127378 7.707568 -4.305706
v 11.836335 1.724321 -0.963263
v 11.349807 3.401607 -1.900252
v 6.563378 8.770298 -4.899382
v 4.820345 9.593797 -5.359416
v 10.553685 4.986105 -2.785406
v 2.945826 10.155602 -5.673259
v 0.990952 10.440388 -5.832351
v 9.469687 6.434597 -3.594581
v -4.820345 9.593797 -5.359416
v -6.563378 8.770298 -4.899382
v -8.127378 7.707568 -4.305706
v -9.469687 6.434597 -3.594581
v -0.990952 9.304541 -7.512892
v -2.945826 9.050736 -7.307960
v -11.349807 3.673822 -1.298044
v -10.553685 4.986105 -2.785406
v -11.836335 1.724321 -0.963263
v 8.127378 6.869034 -5.546358
v 11.836335 1.536726 -1.240819
v 11.349807 3.031533 -2.447792
v 6.563378 7.816145 -6.311097
v 4.820345 8.550053 -6.903686
v 10.553685 4.443649 -3.587996
v 2.945826 9.050736 -7.307960
v 0.990952 9.304541 -7.512892
v 9.469687 5.734553 -4.630329
v -4.820345 8.550053 -6.903686
v -6.563378 7.816145 -6.311097
v -8.127378 6.869034 -5.546358
v -9.469687 5.734553 -4.630329
v -0.990952 7.901018 -8.977301
v -2.945826 7.685499 -8.732423
v -11.349807 3.401607 -1.900252
v -10.553685 4.443649 -3.587996
v -11.836335 1.536726 -1.240819
v 8.127378 5.832891 -6.627451
v 11.836335 1.304922 -1.482679
v 11.349807 2.574249 -2.924915
v 6.563378 6.637137 -7.541252
v 4.820345 7.260339 -8.249348
v 10.553685 3.773357 -4.287366
v 2.945826 7.685499 -8.732423
v 0.990952 7.901018 -8.977301
v 9.469687 4.869538 -5.532870
v -4.820345 7.260339 -8.249348
v -6.563378 6.637137 -7.541252
v -8.127378 5.832891 -6.627451
v -9.469687 4.869538 -5.532870
v -0.990952 6.270198 -10.183449
v -2.945826 6.099164 -9.905671
v -11.349807 3.031533 -2.447792
v -10.553685 3.773357 -4.287366
v -11.836335 1.304922 -1.482679
v 8.127378 4.628945 -7.517884
v 11.836335 1.035578 -1.681885
v 11.349807 2.042907 -3.317893
v 6.563378 5.267190 -8.554460
v 4.820345 5.761759 -9.357692
v 10.553685 2.994512 -4.863397
v 2.945826 6.099164 -9.905671
v 0.990952 6.270198 -10.183449
v 9.469687 3.864434 -6.276240
v -4.820345 5.761759 -9.357692
v -6.563378 5.267190 -8.554460
v -8.127378 4.628945 -7.517884
v -9.469687 3.864434 -6.276240
v -0.990952 4.458996 -11.096638
v -2.945826 4.337366 -10.793950
v -11.349807 2.574249 -2.924915
v -10.553685 2.994512 -4.863397
v -11.836335 1.035578 -1.681885
v 8.127378 3.291833 -8.192041
v 11.836335 0.736442 -1.832706
v 11.349807 1.452796 -3.615421
v 6.563378 3.745715 -9.321571
v 4.820345 4.097424 -10.196833
v 10.553685 2.129521 -5.299516
v 2.945826 4.337366 -10.793950
v 0.990952 4.458996 -11.096638
v 9.469687 2.748158 -6.839055
v -4.820345 4.097424 -10.196833
v -6.563378 3.745715 -9.321571
v -8.127378 3.291833 -8.192041
v -9.469687 2.748158 -6.839055
v -2.945826 2.450790 -11.371708
v -11.349807 2.042907 -3.317893
v -10.553685 2.129521 -5.299516
v -11.836335 0.736442 -1.832706
v 9.469687 1.552823 -7.205122
v 8.127378 1.860021 -8.630529
v 11.836335 0.416120 -1.930804
v 11.349807 0.820889 -3.808940
v 6.563378 2.116483 -9.820518
v 4.820345 2.315213 -10.742628
v 10.553685 1.203267 -5.583179
v 2.945826 2.450790 -11.371708
v 0.990952 2.519516 -11.690597
v -0.990952 2.519516 -11.690597
v -4.820345 2.315213 -10.742628
v -6.563378 2.116483 -9.820518
v -8.127378 1.860021 -8.630529
v -9.469687 1.552823 -7.205122
v -10.553685 1.203267 -5.583179
v -4.820345 0.466398 -10.979378
v -11.349807 1.452796 -3.615421
v -11.836335 0.416120 -1.930804
v 8.127378 0.374700 -8.820732
v 9.469687 0.312815 -7.363912
v 11.836335 0.083827 -1.973355
v 11.349807 0.165368 -3.892883
v 6.563378 0.426364 -10.036946
v 4.820345 0.466398 -10.979378
v 10.553685 0.242397 -5.706223
v 2.945826 0.493710 -11.622322
v 0.990952 0.507555 -11.948238
v -0.990952 0.507555 -11.948238
v -2.945826 0.493710 -11.622322
v -6.563378 0.426364 -10.036946
v -8.127378 0.374700 -8.820732
v -9.469687 0.312815 -7.363912
v -10.553685 0.242397 -5.706223
v -4.820345 -1.395834 -10.900271
v -11.349807 0.820889 -3.808940
v -11.836335 0.083827 -1.973355
v 9.469687 -0.936191 -7.310854
v 11.836335 -0.250877 -1.959137
v 11.349807 -0.494911 -3.864835
v 6.563378 -1.276021 -9.964629
v 4.820345 -1.395834 -10.900271
v 10.553685 -0.725446 -5.665109
v 2.945826 -1.477573 -11.538583
v 0.990952 -1.519008 -11.862151
v -0.990952 -1.519008 -11.862151
v -2.945826 -1.477573 -11.538583
v -6.563378 -1.276021 -9.964629
v -8.127378 -1.121401 -8.757178
v -9.469687 -0.936191 -7.310854
v -10.553685 -0.725446 -5.665109
v -4.820345 -3.217911 -10.507584
v -11.349807 0.165368 -3.892883
v -11.836335 -0.250877 -1.959137
v 6.563378 -2.941697 -9.605649
v 11.836335 -0.578365 -1.888559
v 11.349807 -1.140953 -3.725602
v 4.820345 -3.217911 -10.507584
v 2.945826 -3.406350 -11.122899
v 10.553685 -1.672419 -5.461021
v 0.990952 -3.501872 -11.434812
v -0.990952 -3.501872 -11.434812
v -2.945826 -3.406350 -11.122899
v -6.563378 -2.941697 -9.605649
v -8.127378 -2.585241 -8.441697
v -9.469687 -2.158266 -7.047477
v -10.553685 -1.672419 -5.461021
v -4.820345 -4.947415 -9.812613
v -4.820345 -6.534590 -8.835349
v -6.563378 -4.522746 -8.970331
v -11.349807 -0.494911 -3.864835
v -11.836335 -0.578365 -1.888559
v 9.469687 -3.318250 -6.581357
v 8.127378 -3.974708 -7.883363
v 11.836335 -0.889213 -1.763649
v 11.349807 -1.754171 -3.479191
v 6.563378 -4.522746 -8.970331
v 4.820345 -4.947415 -9.812613
v 10.553685 -2.571280 -5.099829
v 2.945826 -5.237132 -10.387231
v 0.990952 -5.383993 -10.678513
v -0.990952 -5.383993 -10.678513
v -2.945826 -5.237132 -10.387231
v -8.127378 -3.974708 -7.883363
v -9.469687 -3.318250 -6.581357
v -10.553685 -2.571280 -5.099829
v -10.553685 -3.396169 -4.591924
v -11.349807 -2.316925 -3.132689
v -11.349807 -1.754171 -3.479191
v -11.349807 -1.140953 -3.725602
v -11.836335 -0.889213 -1.763649
v 9.469687 -4.382775 -5.925903
v 8.127378 -5.249830 -7.098239
v 11.836335 -1.174481 -1.588003
v 11.349807 -2.316925 -3.132689
v 6.563378 -5.973683 -8.076953
v 4.820345 -6.534590 -8.835349
v 10.553685 -3.396169 -4.591924
v 2.945826 -6.917251 -9.352740
v 0.990952 -7.111227 -9.615013
v -0.990952 -7.111227 -9.615013
v -2.945826 -6.917251 -9.352740
v -6.563378 -5.973683 -8.076953
v -8.127378 -5.249830 -7.098239
v -9.469687 -4.382775 -5.925903
v -4.820345 -7.933778 -7.603910
v -11.836335 -1.174481 -1.588003
v 9.469687 -5.321215 -5.099972
v 8.127378 -6.373924 -6.108912
v 11.836335 -1.425961 -1.366673
v 11.349807 -2.813025 -2.696066
v 6.563378 -7.252769 -6.951216
v 4.820345 -7.933778 -7.603910
v 10.553685 -4.123357 -3.951918
v 2.945826 -8.398374 -8.049189
v 0.990952 -8.633883 -8.274906
v -0.990952 -8.633883 -8.274906
v -2.945826 -8.398374 -8.049189
v -6.563378 -7.252769 -6.951216
v -8.127378 -6.373924 -6.108912
v -9.469687 -5.321215 -5.099972
v -10.553685 -4.123357 -3.951918
v -4.820345 -9.104725 -6.153720
v -11.349807 -2.813025 -2.696066
v -11.836335 -1.425961 -1.366673
v 9.469687 -6.106574 -4.127324
v 8.127378 -7.314652 -4.943842
v 11.836335 -1.636418 -1.106026
v 11.349807 -3.228200 -2.181882
v 6.563378 -8.323206 -5.625505
v 4.820345 -9.104725 -6.153720
v 10.553685 -4.731924 -3.198222
v 2.945826 -9.637890 -6.514077
v 0.990952 -9.908158 -6.696746
v -0.990952 -9.908158 -6.696746
v -2.945826 -9.637890 -6.514077
v -6.563378 -8.323206 -5.625505
v -8.127378 -7.314652 -4.943842
v -9.469687 -6.106574 -4.127324
v -10.553685 -4.731924 -3.198222
v -4.820345 -10.013745 -4.526498
v -11.349807 -3.228200 -2.181882
v -11.836335 -1.636418 -1.106026
v 9.469687 -6.716258 -3.035940
v 8.127378 -8.044951 -3.636547
v 11.836335 -1.799799 -0.813561
v 11.349807 -3.550505 -1.604929
v 6.563378 -9.154200 -4.137959
v 4.820345 -10.013745 -4.526498
v 10.553685 -5.204362 -2.352520
v 2.945826 -10.600142 -4.791566
v 0.990952 -10.897394 -4.925933
v -0.990952 -10.897394 -4.925933
v -2.945826 -10.600142 -4.791566
v -6.563378 -9.154200 -4.137959
v -8.127378 -8.044951 -3.636547
v -9.469687 -6.716258 -3.035940
v -10.553685 -5.204362 -2.352520
v -4.820345 -10.634688 -2.769058
v -11.349807 -3.550505 -1.604929
v -11.836335 -1.799799 -0.813561
v 9.469687 -7.132727 -1.857218
v 8.127378 -8.543811 -2.224635
v 11.836335 -1.911403 -0.497691
v 11.349807 -3.770669 -0.981806
v 6.563378 -9.721843 -2.531371
v 4.820345 -10.634688 -2.769058
v 10.553685 -5.527080 -1.439140
v 2.945826 -11.257447 -2.931211
v 0.990952 -11.573132 -3.013409
v -0.990952 -11.573132 -3.013409
v -2.945826 -11.257447 -2.931211
v -6.563378 -9.721843 -2.531371
v -8.127378 -8.543811 -2.224635
v -9.469687 -7.132727 -1.857218
v -10.553685 -5.527080 -1.439140
v -4.820345 -10.949691 -0.931956
v -6.563378 -10.009807 -0.851960
v -11.349807 -3.770669 -0.981806
v -11.836335 -1.911403 -0.497691
v 9.469687 -7.344000 -0.625067
v 11.836335 -1.968020 -0.167503
v 11.349807 -3.882357 -0.330437
v 8.127378 -8.796882 -0.748725
v 6.563378 -10.009807 -0.851960
v 10.553685 -5.690794 -0.484358
v 4.820345 -10.949691 -0.931956
v 2.945826 -11.590896 -0.986531
v 0.990952 -11.915932 -1.014195
v -0.990952 -11.915932 -1.014195
v -2.945826 -11.590896 -0.986531
v -8.127378 -8.796882 -0.748725
v -9.469687 -7.344000 -0.625067
v -10.553685 -5.690794 -0.484358
v -6.563378 -10.009807 0.851960
v -8.127378 -8.796882 0.748725
v -11.836335 -1.968020 -0.167503
v 9.469687 -7.344000 0.625067
v 11.836335 -1.968020 0.167503
v 11.349807 -3.882357 0.330437
v 8.127378 -8.796882 0.748725
v 6.563378 -10.009807 0.851960
v 10.553685 -5.690794 0.484358
v 4.820345 -10.949691 0.931956
v 2.945826 -11.590896 0.986531
v 0.990952 -11.915932 1.014195
v -0.990952 -11.915932 1.014195
v -2.945826 -11.590896 0.986531
v -4.820345 -10.949691 0.931956
v -9.469687 -7.344000 0.625067
v -10.553685 -5.690794 0.484358
v -11.349807 -3.882357 -0.330437
v -6.563378 -9.721843 2.531371
v -8.127378 -8.543811 2.224635
v -11.836335 -1.968020 0.167503
v 9.469687 -7.132727 1.857218
v 11.836335 -1.911403 0.497691
v 11.349807 -3.770669 0.981806
v 8.127378 -8.543811 2.224635
v 6.563378 -9.721843 2.531371
v 10.553685 -5.527080 1.439140
v 4.820345 -10.634688 2.769058
v 2.945826 -11.257447 2.931211
v 0.990952 -11.573132 3.013409
v -0.990952 -11.573132 3.013409
v -2.945826 -11.257447 2.931211
v -4.820345 -10.634688 2.769058
v -9.469687 -7.132727 1.857218
v -10.553685 -5.527080 1.439140
v -11.349807 -3.882357 0.330437
v -6.563378 -9.154200 4.137959
v -8.127378 -8.044951 3.636547
v 9.469687 -6.716258 3.035940
v 11.836335 -1.799799 0.813561
v 11.349807 -3.550505 1.604929
v 8.127378 -8.044951 3.636547
v 6.563378 -9.154200 4.137959
v 10.553685 -5.204362 2.352520
v 4.820345 -10.013745 4.526498
v 2.945826 -10.600142 4.791566
v 0.990952 -10.897394 4.925933
v -0.990952 -10.897394 4.925933
v -2.945826 -10.600142 4.791566
v -4.820345 -10.013745 4.526498
v -9.469687 -6.716258 3.035940
v -10.553685 -5.204362 2.352520
v -11.349807 -3.770669 0.981806
v -6.563378 -8.323206 5.625505
v -8.127378 -7.314652 4.943842
v -11.836335 -1.911403 0.497691
v 11.836335 -1.636418 1.106026
v 11.349807 -3.228200 2.181882
v 6.563378 -8.323206 5.625505
v 10.553685 -4.731924 3.198222
v 4.820345 -9.104725 6.153720
v 2.945826 -9.637890 6.514077
v 0.990952 -9.908158 6.696746
v -0.990952 -9.908158 6.696746
v -2.945826 -9.637890 6.514077
v -4.820345 -9.104725 6.153720
v -9.469687 -6.106574 4.127324
v -10.553685 -4.731924 3.198222
v -11.349807 -3.550505 1.604929
v -6.563378 -7.252769 6.951216
v -8.127378 -6.373924 6.108912
v -11.836335 -1.799799 0.813561
v 8.127378 -6.373924 6.108912
v 11.836335 -1.425961 1.366673
v 11.349807 -2.813025 2.696066
v 6.563378 -7.252769 6.951216
v 4.820345 -7.933778 7.603910
v 10.553685 -4.123357 3.951918
v 2.945826 -8.398374 8.049189
v 0.990952 -8.633883 8.274906
v -0.990952 -8.633883 8.274906
v -2.945826 -8.398374 8.049189
v -4.820345 -7.933778 7.603910
v -9.469687 -5.321215 5.099972
v -10.553685 -4.123357 3.951918
v -11.349807 -3.228200 2.181882
v -6.563378 -5.973683 8.076953
v -8.127378 -5.249830 7.098239
v -11.349807 -2.813025 2.696066
v -11.836335 -1.636418 1.106026
v 9.469687 -4.382775 5.925903
v 11.349807 -2.316925 3.132689
v 11.836335 -1.174481 1.588003
v 8.127378 -5.249830 7.098239
v 6.563378 -5.973683 8.076953
v 10.553685 -3.396169 4.591924
v 4.820345 -6.534590 8.835349
v 2.945826 -6.917251 9.352740
v 0.990952 -7.111227 9.615013
v -0.990952 -7.111227 9.615013
v -2.945826 -6.917251 9.352740
v -4.820345 -6.534590 8.835349
v -9.469687 -4.382775 5.925903
v -10.553685 -3.396169 4.591924
v -8.127378 -3.974708 7.883363
v -6.563378 -4.522746 8.970331
v -11.836335 -1.425961 1.366673
v -11.349807 -2.316925 3.132689
v 9.469687 -3.318250 6.581357
v 11.349807 -1.754171 3.479191
v 11.836335 -0.889213 1.763649
v 8.127378 -3.974708 7.883363
v 6.563378 -4.522746 8.970331
v 10.553685 -2.571280 5.099829
v 4.820345 -4.947415 9.812613
v 2.945826 -5.237132 10.387231
v 0.990952 -5.383993 10.678513
v -0.990952 -5.383993 10.678513
v -2.945826 -5.237132 10.387231
v -4.820345 -4.947415 9.812613
v -9.469687 -3.318250 6.581357
v -10.553685 -2.571280 5.099829
v -8.127378 -2.585241 8.441697
v -11.836335 -1.174481 1.588003
v -11.349807 -1.754171 3.479191
v 10.553685 -1.672419 5.461021
v 9.469687 -2.158266 7.047477
v 11.349807 -1.140953 3.725602
v 11.836335 -0.578365 1.888559
v 8.127378 -2.585241 8.441697
v 6.563378 -2.941697 9.605649
v 4.820345 -3.217911 10.507584
v 2.945826 -3.406350 11.122899
v 0.990952 -3.501872 11.434812
v -0.990952 -3.501872 11.434812
v -2.945826 -3.406350 11.122899
v -4.820345 -3.217911 10.507584
v -6.563378 -2.941697 9.605649
v -9.469687 -2.158266 7.047477
v -10.553685 -1.672419 5.461021
v -11.349807 -1.140953 3.725602
v -9.469687 -0.936191 7.310854
v -11.836335 -0.889213 1.763649
v 9.469687 -0.936191 7.310854
v 10.553685 -0.725446 5.665109
v 11.349807 -0.494911 3.864835
v 11.836335 -0.250877 1.959137
v 8.127378 -1.121401 8.757178
v 6.563378 -1.276021 9.964629
v 4.820345 -1.395834 10.900271
v 2.945826 -1.477573 11.538583
v 0.990952 -1.519008 11.862151
v -0.990952 -1.519008 11.862151
v -2.945826 -1.477573 11.538583
v -4.820345 -1.395834 10.900271
v -6.563378 -1.276021 9.964629
v -8.127378 -1.121401 8.757178
v -10.553685 -0.725446 5.665109
v -11.349807 -0.494911 3.864835
v -9.469687 0.312815 7.363912
v -11.836335 -0.578365 1.888559
v 9.469687 0.312815 7.363912
v 10.553685 0.242397 5.706223
v 11.349807 0.165368 3.892883
v 11.836335 0.083827 1.973355
v 8.127378 0.374700 8.820732
v 6.563378 0.426364 10.036946
v 4.820345 0.466398 10.979378
v 2.945826 0.493710 11.622322
v 0.990952 0.507555 11.948238
v -0.990952 0.507555 11.948238
v -2.945826 0.493710 11.622322
v -4.820345 0.466398 10.979378
v -6.563378 0.426364 10.036946
v -8.127378 0.374700 8.820732
v -10.553685 0.242397 5.706223
v -11.349807 0.165368 3.892883
v -9.469687 1.552823 7.205122
v -11.836335 -0.250877 1.959137
v 10.553685 1.203267 5.583179
v 11.349807 0.820889 3.808940
v 11.836335 0.416120 1.930804
v 8.127378 1.860021 8.630529
v 6.563378 2.116483 9.820518
v 4.820345 2.315213 10.742628
v 2.945826 2.450790 11.371708
v 0.990952 2.519516 11.690597
v -0.990952 2.519516 11.690597
v -2.945826 2.450790 11.371708
v -4.820345 2.315213 10.742628
v -6.563378 2.116483 9.820518
v -8.127378 1.860021 8.630529
v -10.553685 1.203267 5.583179
v -11.349807 0.820889 3.808940
v -9.469687 2.748158 6.839055
v -11.836335 0.083827 1.973355
v 8.127378 3.291833 8.192041
v 11.349807 1.452796 3.615421
v 11.836335 0.736442 1.832706
v 6.563378 3.745715 9.321571
v 4.820345 4.097424 10.196833
v 2.945826 4.337366 10.793950
v 0.990952 4.458996 11.096638
v -0.990952 4.458996 11.096638
v -2.945826 4.337366 10.793950
v -4.820345 4.097424 10.196833
v -6.563378 3.745715 9.321571
v -8.127378 3.291833 8.192041
v -10.553685 2.129521 5.299516
v -11.349807 1.452796 3.615421
v -11.349807 2.042907 3.317893
v -11.836335 1.035578 1.681885
v -11.836335 0.736442 1.832706
v -9.469687 3.864434 6.276240
v -11.836335 0.416120 1.930804
v 10.553685 2.994512 4.863397
v 9.469687 3.864434 6.276240
v 11.836335 1.035578 1.681885
v 11.349807 2.042907 3.317893
v 8.127378 4.628945 7.517884
v 6.563378 5.267190 8.554460
v 4.820345 5.761759 9.357692
v 2.945826 6.099164 9.905671
v 0.990952 6.270198 10.183449
v -0.990952 6.270198 10.183449
v -2.945826 6.099164 9.905671
v -4.820345 5.761759 9.357692
v -6.563378 5.267190 8.554460
v -8.127378 4.628945 7.517884
v -10.553685 2.994512 4.863397
v -10.553685 3.773357 4.287366
v -9.469687 4.869538 5.532870
v 10.553685 3.773357 4.287366
v 11.836335 1.304922 1.482679
v 11.349807 2.574249 2.924915
v 9.469687 4.869538 5.532870
v 8.127378 5.832891 6.627451
v 6.563378 6.637137 7.541252
v 4.820345 7.260339 8.249348
v 2.945826 7.685499 8.732423
v 0.990952 7.901018 8.977301
v -0.990952 7.901018 8.977301
v -2.945826 7.685499 8.732423
v -4.820345 7.260339 8.249348
v -6.563378 6.637137 7.541252
v -8.127378 5.832891 6.627451
v -11.349807 2.574249 2.924915
v -10.553685 4.443649 3.587996
v -11.349807 3.031533 2.447792
v 10.553685 4.443649 3.587996
v 11.836335 1.536726 1.240819
v 11.349807 3.031533 2.447792
v 9.469687 5.734553 4.630329
v 8.127378 6.869034 5.546358
v 6.563378 7.816145 6.311097
v 4.820345 8.550053 6.903686
v 2.945826 9.050736 7.307960
v 0.990952 9.304541 7.512892
v -0.990952 9.304541 7.512892
v -2.945826 9.050736 7.307960
v -4.820345 8.550053 6.903686
v -6.563378 7.816145 6.311097
v -8.127378 6.869034 5.546358
v -9.469687 5.734553 4.630329
v -11.836335 1.304922 1.482679
v -10.553685 4.986105 2.785406
v -11.349807 3.401607 1.900252
v 11.836335 1.724321 0.963263
v 11.349807 3.401607 1.900252
v 8.127378 7.707568 4.305706
v 6.563378 8.770298 4.899382
v 4.820345 9.593797 5.359416
v 2.945826 10.155602 5.673259
v 0.990952 10.440388 5.832351
v -0.990952 10.440388 5.832351
v -2.945826 10.155602 5.673259
v -4.820345 9.593797 5.359416
v -6.563378 8.770298 4.899382
v -8.127378 7.707568 4.305706
v -9.469687 6.434597 3.594581
v -11.836335 1.536726 1.240819
v -10.553685 5.385121 1.902684
v -11.349807 3.673822 1.298044
v 9.469687 6.949528 2.455424
v 11.836335 1.862310 0.657996
v 8.127378 8.324369 2.941187
v 6.563378 9.472145 3.346722
v 4.820345 10.361545 3.660966
v 2.945826 10.968307 3.875350
v 0.990952 11.275885 3.984023
v -0.990952 11.275885 3.984023
v -2.945826 10.968307 3.875350
v -4.820345 10.361545 3.660966
v -6.563378 9.472145 3.346722
v -8.127378 8.324369 2.941187
v -9.469687 6.949528 2.455424
v -11.836335 1.724321 0.963263
v -11.836335 1.862310 0.657996
v 10.553685 5.629216 0.965226
v 9.469687 7.264534 1.245629
v 8.127378 8.701694 1.492055
v 6.563378 9.901495 1.697782
v 4.820345 10.831209 1.857197
v 2.945826 11.465476 1.965953
v 0.990952 11.786994 2.021083
v -0.990952 11.786994 2.021083
v -2.945826 11.465476 1.965953
v -4.820345 10.831209 1.857197
v -6.563378 9.901495 1.697782
v -8.127378 8.701694 1.492055
v -9.469687 7.264534 1.245629
v -10.553685 5.629216 0.965226
v -11.349807 3.840348 0.658494
v -11.836335 1.946725 0.333799
vn 0.546948 0.825125 -0.141482
vn 0.401695 0.902601 -0.154766
vn 0.401695 0.915773 -0.000000
vn 0.546948 0.837166 0.000000
vn 0.677282 0.725141 -0.124338
vn 0.245485 0.969400 -0.000000
vn 0.677282 0.735724 0.000000
vn 0.789141 0.605378 -0.103802
vn 0.945817 0.324699 0.000000
vn 0.945817 0.320029 0.054874
vn 0.986361 0.164595 -0.000000
vn 0.789141 0.229013 0.569921
vn 0.789141 0.129402 0.600427
vn 0.879474 0.177460 0.441626
vn 0.879474 0.469101 -0.080435
vn 0.879474 0.475947 0.000000
vn 0.945817 0.320029 -0.054874
vn 0.677282 -0.609554 0.411987
vn 0.789141 -0.508881 0.343944
vn 0.789141 -0.443435 0.424998
vn 0.789141 0.536216 0.299548
vn 0.879474 0.415509 0.232117
vn 0.879474 0.448760 0.158557
vn 0.789141 0.614213 -0.000000
vn 0.986361 0.162227 -0.027817
vn 0.945817 0.306152 0.108170
vn 0.986361 0.162227 0.027817
vn 1.000000 -0.000000 0.000000
vn 0.677282 -0.215437 -0.703475
vn 0.677282 -0.093450 -0.729765
vn 0.789141 -0.179855 -0.587290
vn 0.245485 0.955456 -0.163829
vn 0.082579 0.996584 0.000000
vn 0.082579 0.982250 -0.168424
vn -0.082579 0.996584 0.000000
vn -0.082579 0.982250 -0.168424
vn -0.245485 0.969400 -0.000000
vn -0.245485 0.955456 -0.163829
vn -0.401695 0.915773 0.000000
vn -0.401695 0.902601 -0.154766
vn -0.546948 0.837166 -0.000000
vn -0.546948 0.825125 -0.141482
vn -0.677281 0.735724 -0.000000
vn -0.677281 0.725141 -0.124338
vn -0.789140 0.614213 -0.000000
vn -0.789140 0.605378 -0.103802
vn -0.879474 0.475947 -0.000000
vn -0.879474 0.469101 -0.080435
vn -0.945817 0.324699 0.000000
vn -0.245485 0.914026 -0.322946
vn -0.401695 0.863462 -0.305081
vn 0.677282 0.693698 -0.245099
vn 0.986361 0.155192 -0.054833
vn 0.945817 0.306152 -0.108170
vn 0.546948 0.789345 -0.278893
vn 0.401695 0.863462 -0.305081
vn 0.879474 0.448760 -0.158557
vn 0.245485 0.914026 -0.322946
vn 0.082579 0.939657 -0.332002
vn 0.789141 0.579127 -0.204619
vn -0.082579 0.939657 -0.332002
vn -0.546948 0.789345 -0.278894
vn -0.677281 0.693698 -0.245099
vn -0.789140 0.579127 -0.204619
vn -0.082579 0.870032 -0.486029
vn -0.245485 0.846300 -0.472772
vn -0.945817 0.320029 -0.054874
vn -0.879474 0.448760 -0.158557
vn -0.986361 0.164595 0.000000
vn -1.000000 0.000000 -0.000000
vn -0.986361 0.162227 -0.027817
vn -0.986361 0.155192 -0.054833
vn 0.677282 0.642297 -0.358809
vn 0.986361 0.143693 -0.080272
vn 0.945817 0.283467 -0.158354
vn 0.546948 0.730858 -0.408282
vn 0.401695 0.799483 -0.446618
vn 0.879474 0.415509 -0.232117
vn 0.245485 0.846300 -0.472772
vn 0.082579 0.870032 -0.486029
vn 0.789141 0.536216 -0.299548
vn -0.401695 0.799483 -0.446618
vn -0.546948 0.730858 -0.408282
vn -0.677281 0.642297 -0.358809
vn -0.789140 0.536216 -0.299548
vn -0.082579 0.775378 -0.626074
vn -0.245485 0.754228 -0.608997
vn -0.945817 0.306152 -0.108170
vn -0.879474 0.415509 -0.232117
vn -0.986361 0.143693 -0.080272
vn 0.677282 0.572420 -0.462196
vn 0.986361 0.128060 -0.103402
vn 0.945817 0.252628 -0.203983
vn 0.546948 0.651345 -0.525925
vn 0.401695 0.712504 -0.575307
vn 0.879474 0.370304 -0.299000
vn 0.245485 0.754228 -0.608997
vn 0.082579 0.775378 -0.626074
vn 0.789141 0.477879 -0.385861
vn -0.401695 0.712504 -0.575307
vn -0.546948 0.651345 -0.525925
vn -0.677281 0.572420 -0.462196
vn -0.789140 0.477879 -0.385861
vn -0.082579 0.658418 -0.748108
vn -0.245485 0.640458 -0.727702
vn -0.945817 0.283467 -0.158354
vn -0.879474 0.370304 -0.299000
vn -0.986361 0.128060 -0.103402
vn 0.677282 0.486074 -0.552288
vn 0.986361 0.108743 -0.123557
vn 0.945817 0.214521 -0.243743
vn 0.546948 0.553095 -0.628438
vn 0.401695 0.605028 -0.687446
vn 0.879474 0.314446 -0.357280
vn 0.245485 0.640458 -0.727702
vn 0.082579 0.658418 -0.748108
vn 0.789141 0.405795 -0.461072
vn -0.401695 0.605028 -0.687446
vn -0.546948 0.553095 -0.628438
vn -0.677281 0.486074 -0.552288
vn -0.789140 0.405795 -0.461073
vn -0.082579 0.522516 -0.848621
vn -0.245485 0.508264 -0.825473
vn -0.945817 0.252628 -0.203983
vn -0.879474 0.314446 -0.357280
vn -0.986361 0.108743 -0.123557
vn 0.677282 0.385745 -0.626490
vn 0.986361 0.086298 -0.140157
vn 0.945817 0.170242 -0.276491
vn 0.546948 0.438932 -0.712872
vn 0.401695 0.480147 -0.779808
vn 0.879474 0.249543 -0.405283
vn 0.245485 0.508264 -0.825473
vn 0.082579 0.522516 -0.848621
vn 0.789141 0.322036 -0.523020
vn -0.401695 0.480147 -0.779808
vn -0.546948 0.438933 -0.712872
vn -0.677281 0.385745 -0.626490
vn -0.789140 0.322036 -0.523020
vn -0.082579 0.371583 -0.924720
vn -0.245485 0.361447 -0.899496
vn -0.945817 0.214521 -0.243743
vn -0.879474 0.249543 -0.405283
vn -0.986361 0.086298 -0.140157
vn 0.677282 0.274319 -0.682670
vn 0.986361 0.061370 -0.152725
vn 0.945817 0.121066 -0.301285
vn 0.546948 0.312143 -0.776798
vn 0.401695 0.341452 -0.849736
vn 0.879474 0.177460 -0.441626
vn 0.245485 0.361447 -0.899496
vn 0.082579 0.371583 -0.924720
vn 0.789141 0.229013 -0.569921
vn -0.401695 0.341452 -0.849736
vn -0.546948 0.312143 -0.776798
vn -0.677281 0.274319 -0.682670
vn -0.789140 0.229013 -0.569921
vn -0.245485 0.204233 -0.947642
vn -0.945817 0.170242 -0.276491
vn -0.879474 0.177460 -0.441626
vn -0.986361 0.061370 -0.152725
vn 0.789141 0.129402 -0.600427
vn 0.677282 0.155002 -0.719211
vn 0.986361 0.034677 -0.160900
vn 0.945817 0.068407 -0.317412
vn 0.546948 0.176374 -0.818376
vn 0.401695 0.192934 -0.895219
vn 0.879474 0.100272 -0.465265
vn 0.245485 0.204233 -0.947642
vn 0.082579 0.209960 -0.974216
vn -0.082579 0.209960 -0.974216
vn -0.401695 0.192935 -0.895219
vn -0.546948 0.176374 -0.818376
vn -0.677281 0.155002 -0.719211
vn -0.789140 0.129402 -0.600427
vn -0.879474 0.100272 -0.465265
vn -0.401695 0.038867 -0.914948
vn -0.945817 0.121066 -0.301285
vn -0.986361 0.034677 -0.160900
vn 0.677282 0.031225 -0.735061
vn 0.789141 0.026068 -0.613659
vn 0.986361 0.006986 -0.164446
vn 0.945817 0.013781 -0.324407
vn 0.546948 0.035530 -0.836412
vn 0.401695 0.038867 -0.914948
vn 0.879474 0.020200 -0.475518
vn 0.245485 0.041143 -0.968527
vn 0.082579 0.042296 -0.995687
vn -0.082579 0.042296 -0.995687
vn -0.245485 0.041143 -0.968527
vn -0.546948 0.035530 -0.836412
vn -0.677281 0.031225 -0.735061
vn -0.789140 0.026068 -0.613659
vn -0.879474 0.020200 -0.475518
vn -0.401695 -0.116320 -0.908356
vn -0.945817 0.068407 -0.317412
vn -0.986361 0.006986 -0.164446
vn 0.789141 -0.078016 -0.609238
vn 0.986361 -0.020906 -0.163261
vn 0.945817 -0.041243 -0.322069
vn 0.546948 -0.106335 -0.830386
vn 0.401695 -0.116319 -0.908356
vn 0.879474 -0.060454 -0.472092
vn 0.245485 -0.123131 -0.961549
vn 0.082579 -0.126584 -0.988513
vn -0.082579 -0.126584 -0.988513
vn -0.245485 -0.123131 -0.961549
vn -0.546948 -0.106335 -0.830386
vn -0.677281 -0.093450 -0.729765
vn -0.789140 -0.078016 -0.609238
vn -0.879474 -0.060454 -0.472092
vn -0.401695 -0.268159 -0.875632
vn -0.945817 0.013781 -0.324407
vn -0.986361 -0.020906 -0.163261
vn 0.546948 -0.245141 -0.800471
vn 0.986361 -0.048197 -0.157380
vn 0.945817 -0.095079 -0.310467
vn 0.401695 -0.268159 -0.875632
vn 0.245485 -0.283863 -0.926908
vn 0.879474 -0.139368 -0.455085
vn 0.082579 -0.291823 -0.952901
vn -0.082579 -0.291823 -0.952901
vn -0.245485 -0.283862 -0.926908
vn -0.546948 -0.245141 -0.800471
vn -0.677281 -0.215437 -0.703475
vn -0.789140 -0.179855 -0.587290
vn -0.879474 -0.139368 -0.455085
vn -0.401695 -0.412285 -0.817718
vn -0.401695 -0.544549 -0.736279
vn -0.546948 -0.376895 -0.747528
vn -0.945817 -0.041243 -0.322069
vn -0.986361 -0.048197 -0.157380
vn 0.789141 -0.276521 -0.548446
vn 0.677282 -0.331226 -0.656947
vn 0.986361 -0.074101 -0.146971
vn 0.945817 -0.146181 -0.289933
vn 0.546948 -0.376895 -0.747528
vn 0.401695 -0.412285 -0.817718
vn 0.879474 -0.214273 -0.424986
vn 0.245485 -0.436428 -0.865603
vn 0.082579 -0.448666 -0.889876
vn -0.082579 -0.448666 -0.889876
vn -0.245485 -0.436428 -0.865603
vn -0.677281 -0.331226 -0.656947
vn -0.789140 -0.276521 -0.548446
vn -0.879474 -0.214273 -0.424986
vn -0.879474 -0.283014 -0.382660
vn -0.945817 -0.193077 -0.261057
vn -0.945817 -0.146181 -0.289933
vn -0.945817 -0.095079 -0.310467
vn -0.986361 -0.074101 -0.146971
vn 0.789141 -0.365231 -0.493825
vn 0.677282 -0.437486 -0.591520
vn 0.986361 -0.097873 -0.132334
vn 0.945817 -0.193077 -0.261057
vn 0.546948 -0.497807 -0.673079
vn 0.401695 -0.544549 -0.736279
vn 0.879474 -0.283014 -0.382660
vn 0.245485 -0.576438 -0.779395
vn 0.082579 -0.592602 -0.801251
vn -0.082579 -0.592602 -0.801251
vn -0.245485 -0.576438 -0.779395
vn -0.546948 -0.497807 -0.673079
vn -0.677281 -0.437486 -0.591520
vn -0.789140 -0.365231 -0.493825
vn -0.401695 -0.661148 -0.633659
vn -0.986361 -0.097873 -0.132334
vn 0.789141 -0.443435 -0.424998
vn 0.677282 -0.531160 -0.509076
vn 0.986361 -0.118830 -0.113889
vn 0.945817 -0.234419 -0.224672
vn 0.546948 -0.604397 -0.579268
vn 0.401695 -0.661148 -0.633659
vn 0.879474 -0.343613 -0.329327
vn 0.245485 -0.699864 -0.670766
vn 0.082579 -0.719490 -0.689576
vn -0.082579 -0.719490 -0.689576
vn -0.245485 -0.699864 -0.670766
vn -0.546948 -0.604397 -0.579268
vn -0.677281 -0.531160 -0.509076
vn -0.789140 -0.443435 -0.424998
vn -0.879474 -0.343613 -0.329326
vn -0.401695 -0.758727 -0.512810
vn -0.945817 -0.234419 -0.224672
vn -0.986361 -0.118830 -0.113889
vn 0.789141 -0.508881 -0.343944
vn 0.677282 -0.609554 -0.411987
vn 0.986361 -0.136368 -0.092169
vn 0.945817 -0.269017 -0.181823
vn 0.546948 -0.693601 -0.468792
vn 0.401695 -0.758727 -0.512810
vn 0.879474 -0.394327 -0.266518
vn 0.245485 -0.803158 -0.542840
vn 0.082579 -0.825680 -0.558062
vn -0.082579 -0.825680 -0.558062
vn -0.245485 -0.803158 -0.542840
vn -0.546948 -0.693600 -0.468792
vn -0.677281 -0.609554 -0.411987
vn -0.789140 -0.508881 -0.343944
vn -0.879474 -0.394327 -0.266519
vn -0.401695 -0.834479 -0.377208
vn -0.945817 -0.269017 -0.181824
vn -0.986361 -0.136368 -0.092169
vn 0.789141 -0.559688 -0.252995
vn 0.677282 -0.670413 -0.303046
vn 0.986361 -0.149983 -0.067797
vn 0.945817 -0.295875 -0.133744
vn 0.546948 -0.762850 -0.344830
vn 0.401695 -0.834479 -0.377208
vn 0.879474 -0.433697 -0.196043
vn 0.245485 -0.883345 -0.399297
vn 0.082579 -0.908116 -0.410494
vn -0.082579 -0.908116 -0.410494
vn -0.245485 -0.883345 -0.399297
vn -0.546948 -0.762850 -0.344830
vn -0.677281 -0.670413 -0.303046
vn -0.789140 -0.559688 -0.252995
vn -0.879474 -0.433697 -0.196043
vn -0.401695 -0.886224 -0.230755
vn -0.945817 -0.295875 -0.133744
vn -0.986361 -0.149983 -0.067797
vn 0.789141 -0.594394 -0.154768
vn 0.677282 -0.711984 -0.185386
vn 0.986361 -0.159284 -0.041474
vn 0.945817 -0.314222 -0.081817
vn 0.546948 -0.810154 -0.210948
vn 0.401695 -0.886224 -0.230755
vn 0.879474 -0.460590 -0.119928
vn 0.245485 -0.938121 -0.244268
vn 0.082579 -0.964428 -0.251117
vn -0.082579 -0.964428 -0.251117
vn -0.245485 -0.938121 -0.244268
vn -0.546948 -0.810154 -0.210948
vn -0.677281 -0.711984 -0.185386
vn -0.789140 -0.594394 -0.154768
vn -0.879474 -0.460590 -0.119928
vn -0.401695 -0.912474 -0.077663
vn -0.546948 -0.834151 -0.070997
vn -0.945817 -0.314222 -0.081817
vn -0.986361 -0.159284 -0.041474
vn 0.789141 -0.612000 -0.052089
vn 0.986361 -0.164002 -0.013959
vn 0.945817 -0.323530 -0.027536
vn 0.677282 -0.733073 -0.062394
vn 0.546948 -0.834151 -0.070997
vn 0.879474 -0.474233 -0.040363
vn 0.401695 -0.912474 -0.077663
vn 0.245485 -0.965908 -0.082211
vn 0.082579 -0.992994 -0.084516
vn -0.082579 -0.992994 -0.084516
vn -0.245485 -0.965908 -0.082211
vn -0.677281 -0.733073 -0.062394
vn -0.789140 -0.612000 -0.052089
vn -0.879474 -0.474233 -0.040363
vn -0.546948 -0.834151 0.070997
vn -0.677281 -0.733073 0.062394
vn -0.986361 -0.164002 -0.013959
vn 0.789141 -0.612000 0.052089
vn 0.986361 -0.164002 0.013959
vn 0.945817 -0.323530 0.027536
vn 0.677282 -0.733073 0.062394
vn 0.546948 -0.834151 0.070997
vn 0.879474 -0.474233 0.040363
vn 0.401695 -0.912474 0.077663
vn 0.245485 -0.965908 0.082211
vn 0.082579 -0.992994 0.084516
vn -0.082579 -0.992994 0.084516
vn -0.245485 -0.965908 0.082211
vn -0.401695 -0.912474 0.077663
vn -0.789140 -0.612000 0.052089
vn -0.879474 -0.474233 0.040363
vn -0.945817 -0.323530 -0.027536
vn -0.546948 -0.810154 0.210948
vn -0.677281 -0.711984 0.185386
vn -0.986361 -0.164002 0.013959
vn 0.789141 -0.594394 0.154768
vn 0.986361 -0.159284 0.041474
vn 0.945817 -0.314222 0.081817
vn 0.677282 -0.711984 0.185386
vn 0.546948 -0.810154 0.210948
vn 0.879474 -0.460590 0.119928
vn 0.401695 -0.886224 0.230755
vn 0.245485 -0.938121 0.244268
vn 0.082579 -0.964428 0.251118
vn -0.082579 -0.964428 0.251117
vn -0.245485 -0.938121 0.244268
vn -0.401695 -0.886224 0.230755
vn -0.789140 -0.594394 0.154768
vn -0.879474 -0.460590 0.119928
vn -0.945817 -0.323530 0.027536
vn -0.546948 -0.762850 0.344830
vn -0.677281 -0.670413 0.303046
vn 0.789141 -0.559688 0.252995
vn 0.986361 -0.149983 0.067797
vn 0.945817 -0.295875 0.133744
vn 0.677282 -0.670413 0.303046
vn 0.546948 -0.762850 0.344830
vn 0.879474 -0.433697 0.196043
vn 0.401695 -0.834479 0.377208
vn 0.245485 -0.883345 0.399297
vn 0.082579 -0.908116 0.410495
vn -0.082579 -0.908116 0.410494
vn -0.245485 -0.883345 0.399297
vn -0.401695 -0.834479 0.377208
vn -0.789140 -0.559688 0.252995
vn -0.879474 -0.433697 0.196043
vn -0.945817 -0.314222 0.081817
vn -0.546948 -0.693600 0.468792
vn -0.677281 -0.609554 0.411987
vn -0.986361 -0.159284 0.041474
vn 0.986361 -0.136368 0.092169
vn 0.945817 -0.269017 0.181824
vn 0.546948 -0.693600 0.468792
vn 0.879474 -0.394327 0.266518
vn 0.401695 -0.758727 0.512810
vn 0.245485 -0.803157 0.542840
vn 0.082579 -0.825680 0.558062
vn -0.082579 -0.825680 0.558062
vn -0.245485 -0.803158 0.542840
vn -0.401695 -0.758727 0.512810
vn -0.789140 -0.508881 0.343944
vn -0.879474 -0.394327 0.266519
vn -0.945817 -0.295875 0.133744
vn -0.546948 -0.604398 0.579268
vn -0.677281 -0.531160 0.509076
vn -0.986361 -0.149983 0.067797
vn 0.677282 -0.531160 0.509076
vn 0.986361 -0.118830 0.113889
vn 0.945817 -0.234419 0.224672
vn 0.546948 -0.604397 0.579268
vn 0.401695 -0.661148 0.633659
vn 0.879474 -0.343613 0.329326
vn 0.245485 -0.699864 0.670766
vn 0.082579 -0.719490 0.689575
vn -0.082579 -0.719490 0.689576
vn -0.245485 -0.699865 0.670766
vn -0.401695 -0.661148 0.633659
vn -0.789140 -0.443435 0.424998
vn -0.879474 -0.343613 0.329326
vn -0.945817 -0.269017 0.181824
vn -0.546948 -0.497807 0.673079
vn -0.677281 -0.437486 0.591520
vn -0.945817 -0.234419 0.224672
vn -0.986361 -0.136368 0.092169
vn 0.789141 -0.365231 0.493825
vn 0.945817 -0.193077 0.261057
vn 0.986361 -0.097873 0.132334
vn 0.677282 -0.437486 0.591520
vn 0.546948 -0.497807 0.673079
vn 0.879474 -0.283014 0.382660
vn 0.401695 -0.544549 0.736279
vn 0.245485 -0.576438 0.779395
vn 0.082579 -0.592602 0.801251
vn -0.082579 -0.592602 0.801251
vn -0.245485 -0.576438 0.779395
vn -0.401695 -0.544549 0.736279
vn -0.789140 -0.365231 0.493825
vn -0.879474 -0.283014 0.382660
vn -0.677281 -0.331226 0.656947
vn -0.546948 -0.376895 0.747528
vn -0.986361 -0.118830 0.113889
vn -0.945817 -0.193077 0.261057
vn 0.789141 -0.276521 0.548446
vn 0.945817 -0.146181 0.289933
vn 0.986361 -0.074101 0.146971
vn 0.677282 -0.331226 0.656947
vn 0.546948 -0.376895 0.747528
vn 0.879474 -0.214273 0.424986
vn 0.401695 -0.412284 0.817718
vn 0.245485 -0.436427 0.865603
vn 0.082579 -0.448666 0.889876
vn -0.082579 -0.448666 0.889876
vn -0.245485 -0.436427 0.865603
vn -0.401695 -0.412285 0.817718
vn -0.789140 -0.276521 0.548447
vn -0.879474 -0.214273 0.424986
vn -0.677281 -0.215437 0.703475
vn -0.986361 -0.097873 0.132334
vn -0.945817 -0.146181 0.289933
vn 0.879474 -0.139368 0.455085
vn 0.789141 -0.179856 0.587290
vn 0.945817 -0.095079 0.310467
vn 0.986361 -0.048197 0.157380
vn 0.677282 -0.215437 0.703475
vn 0.546948 -0.245141 0.800471
vn 0.401695 -0.268159 0.875632
vn 0.245485 -0.283863 0.926908
vn 0.082579 -0.291823 0.952901
vn -0.082579 -0.291823 0.952901
vn -0.245485 -0.283863 0.926908
vn -0.401695 -0.268159 0.875632
vn -0.546948 -0.245141 0.800471
vn -0.789140 -0.179856 0.587290
vn -0.879474 -0.139368 0.455085
vn -0.945817 -0.095079 0.310467
vn -0.789140 -0.078016 0.609238
vn -0.986361 -0.074101 0.146971
vn 0.789141 -0.078016 0.609238
vn 0.879474 -0.060454 0.472092
vn 0.945817 -0.041243 0.322069
vn 0.986361 -0.020906 0.163261
vn 0.677282 -0.093450 0.729765
vn 0.546948 -0.106335 0.830386
vn 0.401695 -0.116319 0.908356
vn 0.245485 -0.123131 0.961549
vn 0.082579 -0.126584 0.988513
vn -0.082579 -0.126584 0.988513
vn -0.245485 -0.123131 0.961549
vn -0.401695 -0.116319 0.908356
vn -0.546948 -0.106335 0.830386
vn -0.677281 -0.093450 0.729765
vn -0.879474 -0.060454 0.472092
vn -0.945817 -0.041243 0.322069
vn -0.789140 0.026068 0.613659
vn -0.986361 -0.048197 0.157380
vn 0.789141 0.026068 0.613659
vn 0.879474 0.020200 0.475518
vn 0.945817 0.013781 0.324407
vn 0.986361 0.006986 0.164446
vn 0.677282 0.031225 0.735061
vn 0.546948 0.035530 0.836412
vn 0.401695 0.038866 0.914948
vn 0.245485 0.041142 0.968527
vn 0.082579 0.042296 0.995687
vn -0.082579 0.042296 0.995687
vn -0.245485 0.041143 0.968527
vn -0.401695 0.038866 0.914948
vn -0.546948 0.035531 0.836412
vn -0.677281 0.031225 0.735061
vn -0.879474 0.020200 0.475518
vn -0.945817 0.013781 0.324407
vn -0.789140 0.129402 0.600427
vn -0.986361 -0.020906 0.163261
vn 0.879474 0.100272 0.465265
vn 0.945817 0.068407 0.317412
vn 0.986361 0.034677 0.160900
vn 0.677282 0.155002 0.719211
vn 0.546948 0.176374 0.818376
vn 0.401695 0.192934 0.895219
vn 0.245485 0.204233 0.947642
vn 0.082579 0.209960 0.974216
vn -0.082579 0.209960 0.974216
vn -0.245485 0.204233 0.947642
vn -0.401695 0.192934 0.895219
vn -0.546948 0.176374 0.818376
vn -0.677281 0.155002 0.719211
vn -0.879474 0.100272 0.465265
vn -0.945817 0.068407 0.317412
vn -0.789140 0.229013 0.569921
vn -0.986361 0.006986 0.164446
vn 0.677282 0.274319 0.682670
vn 0.945817 0.121066 0.301285
vn 0.986361 0.061370 0.152725
vn 0.546948 0.312143 0.776798
vn 0.401695 0.341452 0.849736
vn 0.245485 0.361447 0.899496
vn 0.082579 0.371583 0.924720
vn -0.082579 0.371583 0.924720
vn -0.245485 0.361447 0.899496
vn -0.401695 0.341452 0.849736
vn -0.546948 0.312143 0.776798
vn -0.677281 0.274320 0.682670
vn -0.879474 0.177460 0.441626
vn -0.945817 0.121066 0.301285
vn -0.945817 0.170242 0.276491
vn -0.986361 0.086298 0.140157
vn -0.986361 0.061370 0.152725
vn -0.789140 0.322036 0.523020
vn -0.986361 0.034677 0.160900
vn 0.879474 0.249543 0.405283
vn 0.789141 0.322036 0.523020
vn 0.986361 0.086298 0.140157
vn 0.945817 0.170242 0.276491
vn 0.677282 0.385745 0.626490
vn 0.546948 0.438932 0.712872
vn 0.401695 0.480147 0.779808
vn 0.245485 0.508264 0.825473
vn 0.082579 0.522516 0.848621
vn -0.082579 0.522516 0.848621
vn -0.245485 0.508264 0.825473
vn -0.401695 0.480147 0.779808
vn -0.546948 0.438932 0.712872
vn -0.677281 0.385745 0.626490
vn -0.879474 0.249543 0.405283
vn -0.879474 0.314446 0.357280
vn -0.789140 0.405795 0.461072
vn 0.879474 0.314446 0.357280
vn 0.986361 0.108743 0.123557
vn 0.945817 0.214521 0.243743
vn 0.789141 0.405795 0.461072
vn 0.677282 0.486074 0.552288
vn 0.546948 0.553095 0.628438
vn 0.401695 0.605028 0.687446
vn 0.245485 0.640458 0.727702
vn 0.082579 0.658418 0.748108
vn -0.082579 0.658418 0.748109
vn -0.245485 0.640458 0.727702
vn -0.401695 0.605028 0.687446
vn -0.546948 0.553095 0.628438
vn -0.677281 0.486074 0.552288
vn -0.945817 0.214521 0.243743
vn -0.879474 0.370304 0.299000
vn -0.945817 0.252628 0.203983
vn 0.879474 0.370304 0.299000
vn 0.986361 0.128060 0.103402
vn 0.945817 0.252628 0.203983
vn 0.789141 0.477879 0.385861
vn 0.677282 0.572419 0.462197
vn 0.546948 0.651345 0.525925
vn 0.401695 0.712504 0.575307
vn 0.245485 0.754228 0.608996
vn 0.082579 0.775378 0.626074
vn -0.082579 0.775379 0.626074
vn -0.245485 0.754228 0.608997
vn -0.401695 0.712505 0.575307
vn -0.546948 0.651345 0.525925
vn -0.677281 0.572420 0.462196
vn -0.789140 0.477879 0.385861
vn -0.986361 0.108743 0.123557
vn -0.879474 0.415509 0.232117
vn -0.945817 0.283467 0.158354
vn 0.986361 0.143693 0.080272
vn 0.945817 0.283467 0.158354
vn 0.677282 0.642297 0.358809
vn 0.546948 0.730858 0.408282
vn 0.401695 0.799483 0.446618
vn 0.245485 0.846300 0.472772
vn 0.082579 0.870032 0.486029
vn -0.082579 0.870032 0.486029
vn -0.245485 0.846300 0.472772
vn -0.401695 0.799483 0.446618
vn -0.546948 0.730858 0.408282
vn -0.677281 0.642297 0.358809
vn -0.789140 0.536216 0.299548
vn -0.986361 0.128060 0.103402
vn -0.879474 0.448760 0.158557
vn -0.945817 0.306152 0.108170
vn 0.789141 0.579127 0.204619
vn 0.986361 0.155192 0.054833
vn 0.677282 0.693698 0.245099
vn 0.546948 0.789345 0.278894
vn 0.401695 0.863462 0.305080
vn 0.245485 0.914026 0.322946
vn 0.082579 0.939657 0.332002
vn -0.082579 0.939657 0.332002
vn -0.245485 0.914026 0.322946
vn -0.401695 0.863462 0.305081
vn -0.546948 0.789346 0.278893
vn -0.677281 0.693697 0.245099
vn -0.789140 0.579127 0.204619
vn -0.986361 0.143693 0.080272
vn -0.986361 0.155192 0.054833
vn 0.879474 0.469101 0.080436
vn 0.789141 0.605378 0.103802
vn 0.677282 0.725141 0.124338
vn 0.546948 0.825125 0.141482
vn 0.401695 0.902601 0.154766
vn 0.245485 0.955456 0.163829
vn 0.082579 0.982250 0.168424
vn -0.082579 0.982249 0.168424
vn -0.245485 0.955456 0.163829
vn -0.401695 0.902601 0.154766
vn -0.546948 0.825125 0.141482
vn -0.677281 0.725141 0.124338
vn -0.789140 0.605378 0.103802
vn -0.879474 0.469101 0.080436
vn -0.945817 0.320029 0.054874
vn -0.986361 0.162227 0.027817

g Revolve1
usemtl mat-1
f 1//1 2//2 3//3
f 1//1 4//4 5//5
f 3//3 2//2 6//6
f 1//1 3//3 4//4
f 5//5 7//7 8//8
f 4//4 7//7 5//5
f 9//9 10//10 11//11
f 12//12 13//13 14//14
f 15//15 16//16 17//17
f 18//18 19//19 20//20
f 21//21 22//22 23//23
f 15//15 24//24 16//16
f 9//9 25//25 17//17
f 26//26 27//27 10//10
f 28//28 11//11 27//27
f 29//29 30//30 31//31
f 17//17 16//16 9//9
f 8//8 24//24 15//15
f 6//6 2//2 32//32
f 32//32 33//33 6//6
f 34//34 33//33 32//32
f 34//34 35//35 33//33
f 34//34 36//36 35//35
f 35//35 36//36 37//37
f 37//37 36//36 38//38
f 39//39 37//37 38//38
f 40//40 39//39 38//38
f 40//40 41//41 39//39
f 40//40 42//42 41//41
f 41//41 42//42 43//43
f 43//43 42//42 44//44
f 45//45 43//43 44//44
f 46//46 45//45 44//44
f 46//46 47//47 45//45
f 46//46 48//48 47//47
f 47//47 48//48 49//49
f 50//50 51//51 40//40
f 28//28 25//25 11//11
f 9//9 11//11 25//25
f 1//1 5//5 52//52
f 7//7 24//24 8//8
f 53//53 54//54 17//17
f 2//2 1//1 55//55
f 54//54 15//15 17//17
f 32//32 2//2 56//56
f 57//57 15//15 54//54
f 34//34 32//32 58//58
f 8//8 15//15 57//57
f 36//36 34//34 59//59
f 8//8 57//57 60//60
f 38//38 36//36 61//61
f 5//5 60//60 52//52
f 40//40 38//38 50//50
f 1//1 52//52 55//55
f 42//42 40//40 51//51
f 2//2 55//55 56//56
f 44//44 42//42 62//62
f 32//32 56//56 58//58
f 46//46 44//44 63//63
f 34//34 58//58 59//59
f 48//48 46//46 64//64
f 36//36 59//59 61//61
f 65//65 66//66 50//50
f 38//38 61//61 50//50
f 67//67 48//48 68//68
f 49//49 67//67 69//69
f 67//67 49//49 48//48
f 62//62 42//42 51//51
f 63//63 44//44 62//62
f 70//70 69//69 71//71
f 67//67 71//71 69//69
f 46//46 63//63 64//64
f 70//70 71//71 72//72
f 28//28 53//53 25//25
f 17//17 25//25 53//53
f 55//55 52//52 73//73
f 5//5 8//8 60//60
f 74//74 75//75 54//54
f 56//56 55//55 76//76
f 75//75 57//57 54//54
f 58//58 56//56 77//77
f 78//78 57//57 75//75
f 59//59 58//58 79//79
f 60//60 57//57 78//78
f 61//61 59//59 80//80
f 60//60 78//78 81//81
f 50//50 61//61 65//65
f 52//52 81//81 73//73
f 51//51 50//50 66//66
f 55//55 73//73 76//76
f 62//62 51//51 82//82
f 56//56 76//76 77//77
f 63//63 62//62 83//83
f 58//58 77//77 79//79
f 64//64 63//63 84//84
f 59//59 79//79 80//80
f 68//68 64//64 85//85
f 61//61 80//80 65//65
f 86//86 87//87 66//66
f 88//88 68//68 89//89
f 68//68 48//48 64//64
f 51//51 66//66 82//82
f 62//62 82//82 83//83
f 71//71 67//67 88//88
f 68//68 88//88 67//67
f 83//83 84//84 63//63
f 84//84 85//85 64//64
f 72//72 90//90 70//70
f 71//71 88//88 72//72
f 28//28 74//74 53//53
f 54//54 53//53 74//74
f 76//76 73//73 91//91
f 52//52 60//60 81//81
f 92//92 93//93 75//75
f 77//77 76//76 94//94
f 93//93 78//78 75//75
f 79//79 77//77 95//95
f 96//96 78//78 93//93
f 80//80 79//79 97//97
f 81//81 78//78 96//96
f 65//65 80//80 98//98
f 81//81 96//96 99//99
f 66//66 65//65 86//86
f 73//73 99//99 91//91
f 82//82 66//66 87//87
f 76//76 91//91 94//94
f 83//83 82//82 100//100
f 77//77 94//94 95//95
f 84//84 83//83 101//101
f 79//79 95//95 97//97
f 85//85 84//84 102//102
f 80//80 97//97 98//98
f 89//89 85//85 103//103
f 65//65 98//98 86//86
f 104//104 105//105 87//87
f 106//106 89//89 107//107
f 89//89 68//68 85//85
f 82//82 87//87 100//100
f 83//83 100//100 101//101
f 72//72 88//88 106//106
f 89//89 106//106 88//88
f 101//101 102//102 84//84
f 102//102 103//103 85//85
f 90//90 108//108 70//70
f 72//72 106//106 90//90
f 28//28 92//92 74//74
f 75//75 74//74 92//92
f 94//94 91//91 109//109
f 73//73 81//81 99//99
f 110//110 111//111 93//93
f 95//95 94//94 112//112
f 111//111 96//96 93//93
f 97//97 95//95 113//113
f 114//114 96//96 111//111
f 98//98 97//97 115//115
f 99//99 96//96 114//114
f 86//86 98//98 116//116
f 99//99 114//114 117//117
f 87//87 86//86 104//104
f 91//91 117//117 109//109
f 100//100 87//87 105//105
f 94//94 109//109 112//112
f 101//101 100//100 118//118
f 95//95 112//112 113//113
f 102//102 101//101 119//119
f 97//97 113//113 115//115
f 103//103 102//102 120//120
f 98//98 115//115 116//116
f 107//107 103//103 121//121
f 86//86 116//116 104//104
f 122//122 123//123 105//105
f 124//124 107//107 125//125
f 107//107 89//89 103//103
f 100//100 105//105 118//118
f 101//101 118//118 119//119
f 90//90 106//106 124//124
f 107//107 124//124 106//106
f 119//119 120//120 102//102
f 120//120 121//121 103//103
f 108//108 126//126 70//70
f 90//90 124//124 108//108
f 28//28 110//110 92//92
f 93//93 92//92 110//110
f 112//112 109//109 127//127
f 91//91 99//99 117//117
f 128//128 129//129 111//111
f 113//113 112//112 130//130
f 129//129 114//114 111//111
f 115//115 113//113 131//131
f 132//132 114//114 129//129
f 116//116 115//115 133//133
f 117//117 114//114 132//132
f 104//104 116//116 134//134
f 117//117 132//132 135//135
f 105//105 104//104 122//122
f 109//109 135//135 127//127
f 118//118 105//105 123//123
f 112//112 127//127 130//130
f 119//119 118//118 136//136
f 113//113 130//130 131//131
f 120//120 119//119 137//137
f 115//115 131//131 133//133
f 121//121 120//120 138//138
f 116//116 133//133 134//134
f 125//125 121//121 139//139
f 104//104 134//134 122//122
f 140//140 141//141 123//123
f 142//142 125//125 143//143
f 125//125 107//107 121//121
f 118//118 123//123 136//136
f 119//119 136//136 137//137
f 108//108 124//124 142//142
f 125//125 142//142 124//124
f 137//137 138//138 120//120
f 138//138 139//139 121//121
f 126//126 144//144 70//70
f 108//108 142//142 126//126
f 28//28 128//128 110//110
f 111//111 110//110 128//128
f 130//130 127//127 145//145
f 109//109 117//117 135//135
f 146//146 147//147 129//129
f 131//131 130//130 148//148
f 147//147 132//132 129//129
f 133//133 131//131 149//149
f 150//150 132//132 147//147
f 134//134 133//133 151//151
f 135//135 132//132 150//150
f 122//122 134//134 152//152
f 135//135 150//150 153//153
f 123//123 122//122 140//140
f 127//127 153//153 145//145
f 136//136 123//123 141//141
f 130//130 145//145 148//148
f 137//137 136//136 154//154
f 131//131 148//148 149//149
f 138//138 137//137 155//155
f 133//133 149//149 151//151
f 139//139 138//138 156//156
f 134//134 151//151 152//152
f 143//143 139//139 157//157
f 122//122 152//152 140//140
f 141//141 158//158 154//154
f 159//159 143//143 160//160
f 143//143 125//125 139//139
f 136//136 141//141 154//154
f 137//137 154//154 155//155
f 126//126 142//142 159//159
f 143//143 159//159 142//142
f 155//155 156//156 138//138
f 156//156 157//157 139//139
f 144//144 161//161 70//70
f 126//126 159//159 144//144
f 28//28 146//146 128//128
f 129//129 128//128 146//146
f 162//162 163//163 145//145
f 127//127 135//135 153//153
f 164//164 165//165 147//147
f 163//163 166//166 148//148
f 165//165 150//150 147//147
f 166//166 167//167 149//149
f 168//168 150//150 165//165
f 167//167 169//169 151//151
f 153//153 150//150 168//168
f 169//169 170//170 152//152
f 145//145 153//153 162//162
f 170//170 171//171 140//140
f 148//148 145//145 163//163
f 171//171 158//158 141//141
f 149//149 148//148 166//166
f 158//158 172//172 154//154
f 151//151 149//149 167//167
f 172//172 173//173 155//155
f 152//152 151//151 169//169
f 173//173 174//174 156//156
f 140//140 152//152 170//170
f 174//174 175//175 157//157
f 141//141 140//140 171//171
f 175//175 176//176 160//160
f 173//173 172//172 177//177
f 160//160 143//143 157//157
f 155//155 154//154 172//172
f 156//156 155//155 173//173
f 144//144 159//159 178//178
f 160//160 178//178 159//159
f 156//156 174//174 157//157
f 157//157 175//175 160//160
f 161//161 179//179 70//70
f 144//144 178//178 161//161
f 28//28 164//164 146//146
f 147//147 146//146 164//164
f 180//180 163//163 181//181
f 162//162 153//153 168//168
f 182//182 183//183 165//165
f 184//184 166//166 180//180
f 183//183 168//168 165//165
f 185//185 167//167 184//184
f 186//186 168//168 183//183
f 187//187 169//169 185//185
f 162//162 168//168 186//186
f 188//188 170//170 187//187
f 163//163 162//162 181//181
f 189//189 171//171 188//188
f 166//166 163//163 180//180
f 190//190 158//158 189//189
f 167//167 166//166 184//184
f 177//177 172//172 190//190
f 169//169 167//167 185//185
f 191//191 173//173 177//177
f 170//170 169//169 187//187
f 192//192 174//174 191//191
f 171//171 170//170 188//188
f 193//193 175//175 192//192
f 158//158 171//171 189//189
f 194//194 176//176 193//193
f 172//172 158//158 190//190
f 191//191 177//177 195//195
f 178//178 176//176 196//196
f 176//176 178//178 160//160
f 191//191 174//174 173//173
f 192//192 175//175 174//174
f 179//179 161//161 196//196
f 178//178 196//196 161//161
f 176//176 175//175 193//193
f 179//179 197//197 70//70
f 28//28 182//182 164//164
f 165//165 164//164 182//182
f 30//30 180//180 198//198
f 181//181 162//162 186//186
f 199//199 200//200 183//183
f 201//201 184//184 30//30
f 200//200 186//186 183//183
f 202//202 185//185 201//201
f 203//203 186//186 200//200
f 204//204 187//187 202//202
f 181//181 186//186 203//203
f 205//205 188//188 204//204
f 180//180 181//181 198//198
f 206//206 189//189 205//205
f 184//184 180//180 30//30
f 207//207 190//190 206//206
f 185//185 184//184 201//201
f 195//195 177//177 207//207
f 187//187 185//185 202//202
f 208//208 191//191 195//195
f 188//188 187//187 204//204
f 209//209 192//192 208//208
f 189//189 188//188 205//205
f 210//210 193//193 209//209
f 190//190 189//189 206//206
f 211//211 194//194 210//210
f 177//177 190//190 207//207
f 208//208 195//195 212//212
f 196//196 194//194 213//213
f 194//194 196//196 176//176
f 208//208 192//192 191//191
f 209//209 193//193 192//192
f 197//197 179//179 213//213
f 196//196 213//213 179//179
f 194//194 193//193 210//210
f 197//197 214//214 70//70
f 28//28 199//199 182//182
f 183//183 182//182 199//199
f 201//201 29//29 215//215
f 198//198 181//181 203//203
f 216//216 217//217 200//200
f 202//202 215//215 218//218
f 217//217 203//203 200//200
f 204//204 218//218 219//219
f 220//220 203//203 217//217
f 205//205 219//219 221//221
f 198//198 203//203 220//220
f 206//206 221//221 222//222
f 30//30 198//198 31//31
f 207//207 222//222 223//223
f 201//201 30//30 29//29
f 195//195 223//223 212//212
f 202//202 201//201 215//215
f 208//208 212//212 224//224
f 204//204 202//202 218//218
f 209//209 224//224 225//225
f 205//205 204//204 219//219
f 210//210 225//225 226//226
f 206//206 205//205 221//221
f 211//211 226//226 227//227
f 207//207 206//206 222//222
f 228//228 229//229 230//230
f 195//195 207//207 223//223
f 224//224 212//212 228//228
f 213//213 211//211 231//231
f 211//211 213//213 194//194
f 224//224 209//209 208//208
f 225//225 210//210 209//209
f 214//214 197//197 231//231
f 213//213 231//231 197//197
f 211//211 210//210 226//226
f 214//214 232//232 70//70
f 28//28 216//216 199//199
f 200//200 199//199 216//216
f 233//233 234//234 29//29
f 31//31 198//198 220//220
f 217//217 235//235 236//236
f 234//234 237//237 215//215
f 217//217 236//236 220//220
f 237//237 238//238 218//218
f 236//236 239//239 220//220
f 238//238 240//240 219//219
f 239//239 31//31 220//220
f 240//240 241//241 221//221
f 233//233 29//29 31//31
f 241//241 242//242 222//222
f 234//234 215//215 29//29
f 242//242 243//243 223//223
f 237//237 218//218 215//215
f 243//243 228//228 212//212
f 238//238 219//219 218//218
f 228//228 230//230 224//224
f 240//240 221//221 219//219
f 230//230 244//244 225//225
f 241//241 222//222 221//221
f 244//244 245//245 226//226
f 242//242 223//223 222//222
f 245//245 246//246 227//227
f 243//243 212//212 223//223
f 247//247 248//248 249//249
f 231//231 227//227 250//250
f 227//227 231//231 211//211
f 230//230 225//225 224//224
f 244//244 226//226 225//225
f 232//232 214//214 250//250
f 231//231 250//250 214//214
f 227//227 226//226 245//245
f 232//232 251//251 70//70
f 28//28 235//235 216//216
f 217//217 216//216 235//235
f 252//252 253//253 234//234
f 233//233 31//31 239//239
f 236//236 254//254 255//255
f 253//253 256//256 237//237
f 236//236 255//255 239//239
f 256//256 257//257 238//238
f 255//255 258//258 239//239
f 257//257 259//259 240//240
f 258//258 233//233 239//239
f 259//259 260//260 241//241
f 252//252 234//234 233//233
f 260//260 261//261 242//242
f 253//253 237//237 234//234
f 261//261 262//262 243//243
f 256//256 238//238 237//237
f 262//262 229//229 228//228
f 257//257 240//240 238//238
f 229//229 263//263 230//230
f 259//259 241//241 240//240
f 263//263 264//264 244//244
f 260//260 242//242 241//241
f 264//264 265//265 245//245
f 261//261 243//243 242//242
f 265//265 247//247 246//246
f 262//262 228//228 243//243
f 266//266 263//263 229//229
f 250//250 246//246 249//249
f 246//246 250//250 227//227
f 263//263 244//244 230//230
f 264//264 245//245 244//244
f 251//251 232//232 249//249
f 250//250 249//249 232//232
f 246//246 245//245 265//265
f 251//251 267//267 70//70
f 28//28 254//254 235//235
f 236//236 235//235 254//254
f 268//268 269//269 253//253
f 252//252 233//233 258//258
f 255//255 270//270 271//271
f 269//269 272//272 256//256
f 255//255 271//271 258//258
f 272//272 273//273 257//257
f 271//271 274//274 258//258
f 273//273 275//275 259//259
f 274//274 252//252 258//258
f 275//275 276//276 260//260
f 268//268 253//253 252//252
f 276//276 277//277 261//261
f 269//269 256//256 253//253
f 277//277 278//278 262//262
f 272//272 257//257 256//256
f 278//278 266//266 229//229
f 273//273 259//259 257//257
f 266//266 279//279 263//263
f 275//275 260//260 259//259
f 279//279 280//280 264//264
f 276//276 261//261 260//260
f 280//280 281//281 265//265
f 277//277 262//262 261//261
f 281//281 282//282 247//247
f 278//278 229//229 262//262
f 283//283 279//279 266//266
f 282//282 284//284 248//248
f 247//247 249//249 246//246
f 279//279 264//264 263//263
f 280//280 265//265 264//264
f 267//267 251//251 248//248
f 249//249 248//248 251//251
f 247//247 265//265 281//281
f 267//267 285//285 70//70
f 28//28 270//270 254//254
f 255//255 254//254 270//270
f 286//286 287//287 269//269
f 268//268 252//252 274//274
f 271//271 288//288 289//289
f 287//287 290//290 272//272
f 271//271 289//289 274//274
f 290//290 291//291 273//273
f 289//289 292//292 274//274
f 291//291 293//293 275//275
f 292//292 268//268 274//274
f 293//293 294//294 276//276
f 286//286 269//269 268//268
f 294//294 295//295 277//277
f 287//287 272//272 269//269
f 295//295 296//296 278//278
f 290//290 273//273 272//272
f 296//296 283//283 266//266
f 291//291 275//275 273//273
f 283//283 297//297 279//279
f 293//293 276//276 275//275
f 297//297 298//298 280//280
f 294//294 277//277 276//276
f 298//298 299//299 281//281
f 295//295 278//278 277//277
f 299//299 300//300 282//282
f 296//296 266//266 278//278
f 301//301 297//297 283//283
f 300//300 302//302 284//284
f 282//282 248//248 247//247
f 297//297 280//280 279//279
f 298//298 281//281 280//280
f 285//285 267//267 284//284
f 248//248 284//284 267//267
f 282//282 281//281 299//299
f 285//285 303//303 70//70
f 28//28 288//288 270//270
f 271//271 270//270 288//288
f 304//304 305//305 287//287
f 286//286 268//268 292//292
f 289//289 306//306 307//307
f 305//305 308//308 290//290
f 289//289 307//307 292//292
f 308//308 309//309 291//291
f 307//307 310//310 292//292
f 309//309 311//311 293//293
f 310//310 286//286 292//292
f 311//311 312//312 294//294
f 304//304 287//287 286//286
f 312//312 313//313 295//295
f 305//305 290//290 287//287
f 313//313 314//314 296//296
f 308//308 291//291 290//290
f 314//314 301//301 283//283
f 309//309 293//293 291//291
f 301//301 315//315 297//297
f 311//311 294//294 293//293
f 315//315 316//316 298//298
f 312//312 295//295 294//294
f 316//316 317//317 299//299
f 313//313 296//296 295//295
f 317//317 318//318 300//300
f 314//314 283//283 296//296
f 319//319 315//315 301//301
f 318//318 320//320 302//302
f 300//300 284//284 282//282
f 315//315 298//298 297//297
f 316//316 299//299 298//298
f 303//303 285//285 302//302
f 284//284 302//302 285//285
f 300//300 299//299 317//317
f 303//303 321//321 70//70
f 28//28 306//306 288//288
f 289//289 288//288 306//306
f 322//322 323//323 305//305
f 304//304 286//286 310//310
f 307//307 324//324 325//325
f 323//323 326//326 308//308
f 307//307 325//325 310//310
f 326//326 327//327 309//309
f 325//325 328//328 310//310
f 327//327 329//329 311//311
f 328//328 304//304 310//310
f 329//329 330//330 312//312
f 322//322 305//305 304//304
f 330//330 331//331 313//313
f 323//323 308//308 305//305
f 331//331 332//332 314//314
f 326//326 309//309 308//308
f 332//332 319//319 301//301
f 327//327 311//311 309//309
f 319//319 333//333 315//315
f 329//329 312//312 311//311
f 333//333 334//334 316//316
f 330//330 313//313 312//312
f 334//334 335//335 317//317
f 331//331 314//314 313//313
f 335//335 336//336 318//318
f 332//332 301//301 314//314
f 337//337 338//338 333//333
f 336//336 339//339 320//320
f 318//318 302//302 300//300
f 333//333 316//316 315//315
f 334//334 317//317 316//316
f 321//321 303//303 320//320
f 302//302 320//320 303//303
f 318//318 317//317 335//335
f 321//321 340//340 70//70
f 28//28 324//324 306//306
f 307//307 306//306 324//324
f 323//323 322//322 341//341
f 322//322 304//304 328//328
f 325//325 342//342 343//343
f 326//326 323//323 344//344
f 325//325 343//343 328//328
f 327//327 326//326 345//345
f 343//343 346//346 328//328
f 329//329 327//327 347//347
f 346//346 341//341 322//322
f 330//330 329//329 348//348
f 341//341 344//344 323//323
f 331//331 330//330 349//349
f 344//344 345//345 326//326
f 332//332 331//331 350//350
f 345//345 347//347 327//327
f 319//319 332//332 351//351
f 347//347 348//348 329//329
f 333//333 319//319 337//337
f 348//348 349//349 330//330
f 334//334 333//333 338//338
f 349//349 350//350 331//331
f 335//335 334//334 352//352
f 350//350 351//351 332//332
f 336//336 335//335 353//353
f 351//351 337//337 319//319
f 339//339 336//336 354//354
f 352//352 355//355 356//356
f 336//336 320//320 318//318
f 338//338 352//352 334//334
f 352//352 353//353 335//335
f 340//340 321//321 339//339
f 320//320 339//339 321//321
f 354//354 336//336 353//353
f 340//340 357//357 70//70
f 28//28 342//342 324//324
f 325//325 324//324 342//342
f 341//341 358//358 344//344
f 346//346 322//322 328//328
f 343//343 359//359 360//360
f 344//344 361//361 345//345
f 343//343 360//360 346//346
f 345//345 362//362 347//347
f 360//360 363//363 346//346
f 347//347 364//364 348//348
f 363//363 358//358 341//341
f 348//348 365//365 349//349
f 358//358 361//361 344//344
f 349//349 366//366 350//350
f 361//361 362//362 345//345
f 350//350 367//367 351//351
f 362//362 364//364 347//347
f 351//351 368//368 337//337
f 364//364 365//365 348//348
f 337//337 369//369 338//338
f 365//365 366//366 349//349
f 338//338 355//355 352//352
f 366//366 367//367 350//350
f 352//352 356//356 353//353
f 367//367 368//368 351//351
f 353//353 370//370 354//354
f 368//368 369//369 337//337
f 354//354 371//371 372//372
f 369//369 355//355 338//338
f 356//356 373//373 374//374
f 340//340 339//339 372//372
f 354//354 372//372 339//339
f 353//353 356//356 370//370
f 354//354 370//370 371//371
f 357//357 375//375 70//70
f 340//340 372//372 357//357
f 342//342 28//28 359//359
f 343//343 342//342 359//359
f 358//358 376//376 361//361
f 363//363 341//341 346//346
f 360//360 377//377 378//378
f 361//361 379//379 362//362
f 360//360 378//378 363//363
f 362//362 380//380 364//364
f 378//378 381//381 363//363
f 364//364 382//382 365//365
f 381//381 376//376 358//358
f 365//365 383//383 366//366
f 376//376 379//379 361//361
f 366//366 384//384 367//367
f 379//379 380//380 362//362
f 367//367 385//385 368//368
f 380//380 382//382 364//364
f 368//368 386//386 369//369
f 382//382 383//383 365//365
f 369//369 387//387 355//355
f 383//383 384//384 366//366
f 355//355 373//373 356//356
f 384//384 385//385 367//367
f 356//356 374//374 370//370
f 385//385 386//386 368//368
f 370//370 388//388 371//371
f 386//386 387//387 369//369
f 371//371 389//389 390//390
f 387//387 373//373 355//355
f 374//374 391//391 392//392
f 357//357 372//372 390//390
f 371//371 390//390 372//372
f 370//370 374//374 388//388
f 371//371 388//388 389//389
f 357//357 390//390 375//375
f 359//359 28//28 377//377
f 360//360 359//359 377//377
f 376//376 393//393 379//379
f 381//381 358//358 363//363
f 378//378 394//394 395//395
f 379//379 396//396 380//380
f 378//378 395//395 381//381
f 380//380 397//397 382//382
f 395//395 398//398 381//381
f 382//382 399//399 383//383
f 398//398 393//393 376//376
f 383//383 400//400 384//384
f 393//393 396//396 379//379
f 384//384 401//401 385//385
f 396//396 397//397 380//380
f 385//385 402//402 386//386
f 397//397 399//399 382//382
f 386//386 403//403 387//387
f 399//399 400//400 383//383
f 387//387 404//404 373//373
f 400//400 401//401 384//384
f 373//373 391//391 374//374
f 401//401 402//402 385//385
f 374//374 392//392 388//388
f 402//402 403//403 386//386
f 388//388 405//405 389//389
f 403//403 404//404 387//387
f 389//389 406//406 407//407
f 404//404 391//391 373//373
f 392//392 408//408 409//409
f 375//375 390//390 407//407
f 389//389 407//407 390//390
f 388//388 392//392 405//405
f 389//389 405//405 406//406
f 70//70 375//375 410//410
f 375//375 407//407 410//410
f 377//377 28//28 394//394
f 378//378 377//377 394//394
f 393//393 19//19 396//396
f 398//398 376//376 381//381
f 395//395 411//411 412//412
f 396//396 18//18 397//397
f 395//395 412//412 398//398
f 397//397 413//413 399//399
f 412//412 414//414 398//398
f 399//399 415//415 400//400
f 414//414 19//19 393//393
f 400//400 416//416 401//401
f 19//19 18//18 396//396
f 401//401 417//417 402//402
f 18//18 413//413 397//397
f 402//402 418//418 403//403
f 413//413 415//415 399//399
f 403//403 419//419 404//404
f 415//415 416//416 400//400
f 404//404 420//420 391//391
f 416//416 417//417 401//401
f 391//391 408//408 392//392
f 417//417 418//418 402//402
f 392//392 409//409 405//405
f 418//418 419//419 403//403
f 405//405 421//421 406//406
f 419//419 420//420 404//404
f 406//406 422//422 423//423
f 420//420 408//408 391//391
f 409//409 424//424 425//425
f 410//410 407//407 423//423
f 406//406 423//423 407//407
f 405//405 409//409 421//421
f 406//406 421//421 422//422
f 70//70 410//410 426//426
f 410//410 423//423 426//426
f 394//394 28//28 411//411
f 395//395 394//394 411//411
f 427//427 413//413 18//18
f 414//414 393//393 398//398
f 412//412 428//428 429//429
f 430//430 415//415 413//413
f 412//412 429//429 414//414
f 431//431 416//416 415//415
f 429//429 432//432 414//414
f 433//433 417//417 416//416
f 432//432 20//20 19//19
f 434//434 418//418 417//417
f 20//20 427//427 18//18
f 435//435 419//419 418//418
f 427//427 430//430 413//413
f 436//436 420//420 419//419
f 430//430 431//431 415//415
f 437//437 408//408 420//420
f 431//431 433//433 416//416
f 424//424 409//409 408//408
f 433//433 434//434 417//417
f 425//425 421//421 409//409
f 434//434 435//435 418//418
f 438//438 422//422 421//421
f 435//435 436//436 419//419
f 439//439 440//440 422//422
f 436//436 437//437 420//420
f 441//441 442//442 425//425
f 437//437 424//424 408//408
f 440//440 443//443 444//444
f 426//426 423//423 440//440
f 422//422 440//440 423//423
f 421//421 425//425 438//438
f 422//422 438//438 439//439
f 70//70 426//426 444//444
f 426//426 440//440 444//444
f 411//411 28//28 428//428
f 412//412 411//411 428//428
f 427//427 20//20 445//445
f 432//432 19//19 414//414
f 446//446 429//429 447//447
f 430//430 427//427 448//448
f 432//432 429//429 446//446
f 431//431 430//430 449//449
f 432//432 446//446 450//450
f 433//433 431//431 451//451
f 20//20 450//450 445//445
f 434//434 433//433 452//452
f 427//427 445//445 448//448
f 435//435 434//434 453//453
f 430//430 448//448 449//449
f 436//436 435//435 454//454
f 431//431 449//449 451//451
f 437//437 436//436 455//455
f 433//433 451//451 452//452
f 424//424 437//437 456//456
f 434//434 452//452 453//453
f 425//425 424//424 441//441
f 435//435 453//453 454//454
f 438//438 425//425 442//442
f 436//436 454//454 455//455
f 439//439 438//438 457//457
f 437//437 455//455 456//456
f 443//443 439//439 458//458
f 424//424 456//456 441//441
f 459//459 442//442 460//460
f 461//461 443//443 462//462
f 439//439 443//443 440//440
f 438//438 442//442 457//457
f 439//439 457//457 458//458
f 70//70 444//444 461//461
f 444//444 443//443 461//461
f 428//428 28//28 447//447
f 429//429 428//428 447//447
f 448//448 445//445 463//463
f 450//450 20//20 432//432
f 464//464 446//446 465//465
f 449//449 448//448 466//466
f 450//450 446//446 464//464
f 451//451 449//449 467//467
f 450//450 464//464 468//468
f 452//452 451//451 469//469
f 445//445 468//468 463//463
f 453//453 452//452 470//470
f 448//448 463//463 466//466
f 454//454 453//453 471//471
f 449//449 466//466 467//467
f 455//455 454//454 472//472
f 451//451 467//467 469//469
f 456//456 455//455 473//473
f 452//452 469//469 470//470
f 441//441 456//456 474//474
f 453//453 470//470 471//471
f 442//442 441//441 460//460
f 454//454 471//471 472//472
f 457//457 442//442 459//459
f 455//455 472//472 473//473
f 458//458 457//457 475//475
f 456//456 473//473 474//474
f 462//462 458//458 476//476
f 441//441 474//474 460//460
f 477//477 475//475 459//459
f 478//478 462//462 479//479
f 458//458 462//462 443//443
f 457//457 459//459 475//475
f 458//458 475//475 476//476
f 70//70 461//461 478//478
f 461//461 462//462 478//478
f 447//447 28//28 465//465
f 446//446 447//447 465//465
f 480//480 481//481 463//463
f 468//468 445//445 450//450
f 482//482 464//464 483//483
f 481//481 484//484 466//466
f 468//468 464//464 482//482
f 484//484 485//485 467//467
f 463//463 468//468 480//480
f 485//485 486//486 469//469
f 466//466 463//463 481//481
f 486//486 487//487 470//470
f 467//467 466//466 484//484
f 487//487 488//488 471//471
f 469//469 467//467 485//485
f 488//488 489//489 472//472
f 470//470 469//469 486//486
f 489//489 490//490 473//473
f 471//471 470//470 487//487
f 490//490 491//491 474//474
f 472//472 471//471 488//488
f 491//491 492//492 460//460
f 473//473 472//472 489//489
f 492//492 477//477 459//459
f 474//474 473//473 490//490
f 477//477 493//493 475//475
f 460//460 474//474 491//491
f 493//493 494//494 476//476
f 459//459 460//460 492//492
f 494//494 495//495 479//479
f 493//493 496//496 494//494
f 476//476 479//479 462//462
f 476//476 475//475 493//493
f 479//479 476//476 494//494
f 70//70 478//478 497//497
f 478//478 479//479 497//497
f 465//465 28//28 483//483
f 464//464 465//465 483//483
f 498//498 481//481 499//499
f 482//482 480//480 468//468
f 500//500 482//482 501//501
f 502//502 484//484 498//498
f 480//480 482//482 500//500
f 503//503 485//485 502//502
f 481//481 480//480 499//499
f 504//504 486//486 503//503
f 484//484 481//481 498//498
f 505//505 487//487 504//504
f 485//485 484//484 502//502
f 506//506 488//488 505//505
f 486//486 485//485 503//503
f 507//507 489//489 506//506
f 487//487 486//486 504//504
f 508//508 490//490 507//507
f 488//488 487//487 505//505
f 509//509 491//491 508//508
f 489//489 488//488 506//506
f 510//510 492//492 509//509
f 490//490 489//489 507//507
f 511//511 477//477 510//510
f 491//491 490//490 508//508
f 496//496 493//493 511//511
f 492//492 491//491 509//509
f 512//512 494//494 496//496
f 477//477 492//492 510//510
f 513//513 495//495 512//512
f 493//493 477//477 511//511
f 496//496 514//514 512//512
f 515//515 497//497 495//495
f 479//479 495//495 497//497
f 512//512 495//495 494//494
f 70//70 497//497 515//515
f 483//483 28//28 501//501
f 482//482 483//483 501//501
f 516//516 498//498 517//517
f 500//500 499//499 480//480
f 518//518 500//500 519//519
f 520//520 502//502 516//516
f 499//499 500//500 518//518
f 521//521 503//503 520//520
f 498//498 499//499 517//517
f 522//522 504//504 521//521
f 502//502 498//498 516//516
f 523//523 505//505 522//522
f 503//503 502//502 520//520
f 524//524 506//506 523//523
f 504//504 503//503 521//521
f 525//525 507//507 524//524
f 505//505 504//504 522//522
f 526//526 508//508 525//525
f 506//506 505//505 523//523
f 527//527 509//509 526//526
f 507//507 506//506 524//524
f 528//528 510//510 527//527
f 508//508 507//507 525//525
f 529//529 511//511 528//528
f 509//509 508//508 526//526
f 514//514 496//496 529//529
f 510//510 509//509 527//527
f 530//530 512//512 514//514
f 511//511 510//510 528//528
f 531//531 513//513 530//530
f 496//496 511//511 529//529
f 514//514 532//532 530//530
f 533//533 515//515 513//513
f 495//495 513//513 515//515
f 530//530 513//513 512//512
f 70//70 515//515 533//533
f 501//501 28//28 519//519
f 500//500 501//501 519//519
f 13//13 516//516 534//534
f 518//518 517//517 499//499
f 535//535 518//518 536//536
f 537//537 520//520 13//13
f 517//517 518//518 535//535
f 538//538 521//521 537//537
f 516//516 517//517 534//534
f 539//539 522//522 538//538
f 520//520 516//516 13//13
f 540//540 523//523 539//539
f 521//521 520//520 537//537
f 541//541 524//524 540//540
f 522//522 521//521 538//538
f 542//542 525//525 541//541
f 523//523 522//522 539//539
f 543//543 526//526 542//542
f 524//524 523//523 540//540
f 544//544 527//527 543//543
f 525//525 524//524 541//541
f 545//545 528//528 544//544
f 526//526 525//525 542//542
f 546//546 529//529 545//545
f 527//527 526//526 543//543
f 532//532 514//514 546//546
f 528//528 527//527 544//544
f 547//547 530//530 532//532
f 529//529 528//528 545//545
f 548//548 531//531 547//547
f 514//514 529//529 546//546
f 532//532 549//549 547//547
f 550//550 533//533 531//531
f 513//513 531//531 533//533
f 547//547 531//531 530//530
f 70//70 533//533 550//550
f 519//519 28//28 536//536
f 518//518 519//519 536//536
f 537//537 12//12 551//551
f 535//535 534//534 517//517
f 552//552 535//535 553//553
f 538//538 551//551 554//554
f 534//534 535//535 552//552
f 539//539 554//554 555//555
f 13//13 534//534 14//14
f 540//540 555//555 556//556
f 537//537 13//13 12//12
f 541//541 556//556 557//557
f 538//538 537//537 551//551
f 542//542 557//557 558//558
f 539//539 538//538 554//554
f 543//543 558//558 559//559
f 540//540 539//539 555//555
f 544//544 559//559 560//560
f 541//541 540//540 556//556
f 545//545 560//560 561//561
f 542//542 541//541 557//557
f 546//546 561//561 562//562
f 543//543 542//542 558//558
f 532//532 562//562 549//549
f 544//544 543//543 559//559
f 547//547 549//549 563//563
f 545//545 544//544 560//560
f 548//548 563//563 564//564
f 546//546 545//545 561//561
f 565//565 566//566 567//567
f 532//532 546//546 562//562
f 549//549 568//568 563//563
f 569//569 550//550 548//548
f 531//531 548//548 550//550
f 563//563 548//548 547//547
f 70//70 550//550 569//569
f 536//536 28//28 553//553
f 535//535 536//536 553//553
f 570//570 571//571 12//12
f 552//552 14//14 534//534
f 572//572 573//573 552//552
f 571//571 574//574 551//551
f 573//573 14//14 552//552
f 574//574 575//575 554//554
f 570//570 12//12 14//14
f 575//575 576//576 555//555
f 571//571 551//551 12//12
f 576//576 577//577 556//556
f 574//574 554//554 551//551
f 577//577 578//578 557//557
f 575//575 555//555 554//554
f 578//578 579//579 558//558
f 576//576 556//556 555//555
f 579//579 580//580 559//559
f 577//577 557//557 556//556
f 580//580 581//581 560//560
f 578//578 558//558 557//557
f 581//581 582//582 561//561
f 579//579 559//559 558//558
f 582//582 583//583 562//562
f 580//580 560//560 559//559
f 583//583 568//568 549//549
f 581//581 561//561 560//560
f 568//568 584//584 563//563
f 582//582 562//562 561//561
f 584//584 565//565 564//564
f 583//583 549//549 562//562
f 585//585 584//584 586//586
f 567//567 569//569 564//564
f 548//548 564//564 569//569
f 584//584 564//564 563//563
f 70//70 569//569 567//567
f 553//553 28//28 572//572
f 552//552 553//553 572//572
f 571//571 570//570 587//587
f 573//573 570//570 14//14
f 588//588 589//589 573//573
f 574//574 571//571 590//590
f 589//589 587//587 570//570
f 575//575 574//574 591//591
f 587//587 590//590 571//571
f 576//576 575//575 592//592
f 590//590 591//591 574//574
f 577//577 576//576 593//593
f 591//591 592//592 575//575
f 578//578 577//577 594//594
f 592//592 593//593 576//576
f 579//579 578//578 595//595
f 593//593 594//594 577//577
f 580//580 579//579 596//596
f 594//594 595//595 578//578
f 581//581 580//580 597//597
f 595//595 596//596 579//579
f 582//582 581//581 598//598
f 596//596 597//597 580//580
f 583//583 582//582 599//599
f 597//597 598//598 581//581
f 568//568 583//583 600//600
f 598//598 599//599 582//582
f 584//584 568//568 586//586
f 599//599 600//600 583//583
f 565//565 584//584 585//585
f 600//600 586//586 568//568
f 566//566 565//565 601//601
f 602//602 603//603 601//601
f 564//564 565//565 567//567
f 585//585 601//601 565//565
f 70//70 567//567 566//566
f 572//572 28//28 588//588
f 573//573 572//572 588//588
f 587//587 604//604 590//590
f 573//573 589//589 570//570
f 605//605 606//606 589//589
f 590//590 607//607 591//591
f 606//606 604//604 587//587
f 591//591 608//608 592//592
f 604//604 607//607 590//590
f 592//592 609//609 593//593
f 607//607 608//608 591//591
f 593//593 610//610 594//594
f 608//608 609//609 592//592
f 594//594 611//611 595//595
f 609//609 610//610 593//593
f 595//595 612//612 596//596
f 610//610 611//611 594//594
f 596//596 613//613 597//597
f 611//611 612//612 595//595
f 597//597 614//614 598//598
f 612//612 613//613 596//596
f 598//598 615//615 599//599
f 613//613 614//614 597//597
f 599//599 616//616 600//600
f 614//614 615//615 598//598
f 600//600 617//617 586//586
f 615//615 616//616 599//599
f 586//586 618//618 585//585
f 616//616 617//617 600//600
f 585//585 602//602 601//601
f 617//617 618//618 586//586
f 601//601 603//603 619//619
f 618//618 602//602 585//585
f 620//620 621//621 603//603
f 70//70 566//566 619//619
f 566//566 601//601 619//619
f 588//588 28//28 605//605
f 589//589 588//588 605//605
f 604//604 22//22 607//607
f 589//589 606//606 587//587
f 622//622 623//623 606//606
f 607//607 21//21 608//608
f 623//623 22//22 604//604
f 608//608 624//624 609//609
f 22//22 21//21 607//607
f 609//609 625//625 610//610
f 21//21 624//624 608//608
f 610//610 626//626 611//611
f 624//624 625//625 609//609
f 611//611 627//627 612//612
f 625//625 626//626 610//610
f 612//612 628//628 613//613
f 626//626 627//627 611//611
f 613//613 629//629 614//614
f 627//627 628//628 612//612
f 614//614 630//630 615//615
f 628//628 629//629 613//613
f 615//615 631//631 616//616
f 629//629 630//630 614//614
f 616//616 632//632 617//617
f 630//630 631//631 615//615
f 617//617 633//633 618//618
f 631//631 632//632 616//616
f 618//618 634//634 602//602
f 632//632 633//633 617//617
f 602//602 620//620 603//603
f 633//633 634//634 618//618
f 603//603 621//621 635//635
f 634//634 620//620 602//602
f 636//636 637//637 621//621
f 70//70 619//619 635//635
f 619//619 603//603 635//635
f 605//605 28//28 622//622
f 606//606 605//605 622//622
f 638//638 624//624 21//21
f 606//606 623//623 604//604
f 639//639 26//26 623//623
f 640//640 625//625 624//624
f 26//26 23//23 22//22
f 641//641 626//626 625//625
f 23//23 638//638 21//21
f 642//642 627//627 626//626
f 638//638 640//640 624//624
f 643//643 628//628 627//627
f 640//640 641//641 625//625
f 644//644 629//629 628//628
f 641//641 642//642 626//626
f 645//645 630//630 629//629
f 642//642 643//643 627//627
f 646//646 631//631 630//630
f 643//643 644//644 628//628
f 647//647 632//632 631//631
f 644//644 645//645 629//629
f 648//648 633//633 632//632
f 645//645 646//646 630//630
f 649//649 634//634 633//633
f 646//646 647//647 631//631
f 650//650 620//620 634//634
f 647//647 648//648 632//632
f 636//636 621//621 620//620
f 648//648 649//649 633//633
f 637//637 651//651 621//621
f 649//649 650//650 634//634
f 651//651 637//637 652//652
f 650//650 636//636 620//620
f 651//651 652//652 70//70
f 70//70 635//635 651//651
f 635//635 621//621 651//651
f 622//622 28//28 639//639
f 623//623 622//622 639//639
f 10//10 653//653 23//23
f 623//623 26//26 22//22
f 10//10 23//23 26//26
f 653//653 654//654 638//638
f 653//653 638//638 23//23
f 654//654 655//655 640//640
f 654//654 640//640 638//638
f 655//655 656//656 641//641
f 655//655 641//641 640//640
f 656//656 657//657 642//642
f 656//656 642//642 641//641
f 657//657 658//658 643//643
f 657//657 643//643 642//642
f 658//658 659//659 644//644
f 658//658 644//644 643//643
f 659//659 660//660 645//645
f 659//659 645//645 644//644
f 660//660 661//661 646//646
f 660//660 646//646 645//645
f 661//661 662//662 647//647
f 661//661 647//647 646//646
f 662//662 663//663 648//648
f 662//662 648//648 647//647
f 663//663 664//664 649//649
f 663//663 649//649 648//648
f 664//664 665//665 650//650
f 664//664 650//650 649//649
f 665//665 666//666 636//636
f 665//665 636//636 650//650
f 666//666 667//667 637//637
f 666//666 637//637 636//636
f 667//667 668//668 652//652
f 668//668 70//70 652//652
f 667//667 652//652 637//637
f 639//639 28//28 27//27
f 26//26 639//639 27//27
f 653//653 9//9 16//16
f 11//11 10//10 27//27
f 654//654 16//16 24//24
f 9//9 653//653 10//10
f 655//655 24//24 7//7
f 16//16 654//654 653//653
f 656//656 7//7 4//4
f 24//24 655//655 654//654
f 657//657 4//4 3//3
f 7//7 656//656 655//655
f 658//658 3//3 6//6
f 4//4 657//657 656//656
f 659//659 6//6 33//33
f 3//3 658//658 657//657
f 660//660 33//33 35//35
f 6//6 659//659 658//658
f 661//661 35//35 37//37
f 33//33 660//660 659//659
f 662//662 37//37 39//39
f 35//35 661//661 660//660
f 663//663 39//39 41//41
f 37//37 662//662 661//661
f 664//664 41//41 43//43
f 39//39 663//663 662//662
f 665//665 43//43 45//45
f 41//41 664//664 663//663
f 666//666 45//45 47//47
f 43//43 665//665 664//664
f 667//667 47//47 49//49
f 45//45 666//666 665//665
f 668//668 49//49 69//69
f 47//47 667//667 666//666
f 69//69 70//70 668//668
f 49//49 668//668 667//667
